<?xml version="1.0" encoding="utf-8"?>
<!-- Generator: Adobe Illustrator 23.1.0, SVG Export Plug-In . SVG Version: 6.00 Build 0)  -->
<svg version="1.1" xmlns="http://www.w3.org/2000/svg" xmlns:xlink="http://www.w3.org/1999/xlink" x="0px" y="0px"
	 viewBox="0 0 750 500" style="enable-background:new 0 0 750 500;" xml:space="preserve">
<style type="text/css">
	.st0{fill:#A8E4E6;}
	.st1{fill:#662D91;}
	.st2{fill:#6FCDD1;}
	.st3{fill:#FFFFFF;}
	.st4{fill:#91DDE0;}
	.st5{fill:#F7931E;}
	.st6{fill:#F08E1A;}
	.st7{fill:#904BC4;}
	.st8{fill:#D95F67;}
	.st9{fill:none;stroke:#FC929A;stroke-width:2;stroke-miterlimit:10;}
	.st10{fill:#FFE5B0;}
	.st11{fill:#42989C;}
	.st12{fill:#FFD1B3;}
	.st13{fill:#36241A;}
	.st14{fill:#2E76A6;}
	.st15{fill:#FFBC8F;}
	.st16{fill:#C9926E;}
	.st17{fill:#FF828B;}
	.st18{fill:#42332B;}
	.st19{fill:#2E3192;}
	.st20{fill:#D95B63;}
	.st21{fill:#1C206B;}
	.st22{fill:#154F75;}
	.st23{fill:#B82C35;}
	.st24{fill:#4B1B70;}
	.st25{fill:#FFCA8C;}
	.st26{fill:#BA4E0F;}
	.st27{fill:#62A0A3;}
	.st28{fill:#BFFDFF;}
	.st29{fill:#EDDDBB;}
	.st30{fill:#9CEFF2;}
	.st31{fill:#FFF1D9;}
	.st32{fill:#6265C7;}
	.st33{fill:#4346A1;}
</style>
<g id="background_2">
	<g>
		<path class="st0" d="M649.46,409.67c4.79,0.55,9.4,1.66,7.56,5.71c-1.84,4.05-6.63,3.69-6.63,3.69L649.46,409.67z"/>
		<path class="st1" d="M644.3,342.22c5.71,0.55,13.08,1.94,10.14,5.62c-2.95,3.69-14.01,4.33-14.01,4.33L644.3,342.22z"/>
		<path class="st2" d="M638.96,245.83c4.79-0.37,10.6,0.09,10.04,3.69c-0.37,2.37-10.04,3.68-10.04,3.68V245.83z"/>
		<path class="st3" d="M651.31,394.38c-0.74,6.08-0.92,21.93-0.92,21.93c-35.2,19.35-106.16,44.79-110.39,44.42
			c-4.24-0.37-12.16-14.74-6.45-18.98C539.25,437.5,647.07,396.03,651.31,394.38z"/>
		<path class="st4" d="M351.64,385.53c0.37,5.16-0.37,18.06,0.74,19.54c1.11,1.47,179.14,59.16,186.88,60.27
			c7.74,1.11,103.21-40.36,114.27-45.89c4.79-3.69,3.32-8.48-1.47-4.79c-4.79,3.69-106.71,44.23-114.08,46.07
			c-1.29-0.18-4.61-13.27-0.19-17.32c4.42-4.05,115.37-46.44,120.16-49.02c5.9-4.05,7.37-7.74-8.85-9.58
			C632.51,382.95,351.64,385.53,351.64,385.53z"/>
		<path class="st5" d="M647.8,374.29c3.5,0.18,11.15,0.46,12.53,2.76c0.51,0.85,0.55,2.77-2.39,4.42
			c-7.56,4.05-84.22,49.21-88.1,48.29c-3.87-0.92-6.27-3.87-6.27-3.87S637.3,378.16,647.8,374.29z"/>
		<path class="st3" d="M651.12,351.06c-6.27,7.37-6.82,23.59,0.37,26.54c-9.77,6.63-86.25,50.87-86.25,50.87
			s-10.51-23.41,4.42-32.99C584.59,385.9,651.12,351.06,651.12,351.06z"/>
		<path class="st6" d="M368.04,344.98c-8.48,1.84-25.43,2.58-26.17,14.38c-0.74,11.79-0.37,22.12,1.11,26.54
			c1.47,4.42,190.19,40.91,217.84,45.71c7.74,2.21,12.9-1.47,25.07-7.74c12.16-6.27,70.77-41.28,73.72-43.49
			c2.95-2.21,0.37-5.9-4.05-3.32c-4.42,2.58-75.93,44.97-83.67,49.76c-4.05,1.84-4.24-23.78,4.61-30.78
			c8.85-7,74.09-45.34,74.09-45.34S369.15,345.35,368.04,344.98z"/>
		<path class="st3" d="M645.96,317.34l-0.18,30.96c-15.11,12.16-74.83,39.62-84.22,39.62c-5.53-3.5-11.98-34.65,3.5-37.96
			C580.54,346.64,645.96,317.34,645.96,317.34z"/>
		<path class="st1" d="M369.33,309.6c-9.95,4.79-16.59,20.64-4.42,38.33c4.05,4.79,177.29,39.81,196.09,44.97
			c7.74,1.11,79.98-36.12,91.04-42.39c7.37-5.34,0.37-7.74-7-1.84c-7.37,5.9-75.56,36.12-79.98,37.6
			c-5.53,1.84-11.43-22.49,0.74-30.59c12.16-8.11,80.35-36.12,86.25-38.7c4.79-2.95,5.53-7,0-7.37
			c-5.53-0.37-201.25-18.8-202.73-18.8C447.84,290.8,383.71,302.59,369.33,309.6z"/>
		<g>
			<g>
				<g>
					<path class="st7" d="M557.77,351.16c0,0.05-0.56,0.01-1.63-0.11c-1.06-0.12-2.62-0.31-4.63-0.57c-2.01-0.27-4.47-0.6-7.33-0.98
						c-2.86-0.39-6.08-0.99-9.66-1.58c-3.57-0.61-7.49-1.28-11.69-2c-4.19-0.78-8.67-1.61-13.38-2.48
						c-9.43-1.74-19.76-3.78-30.61-5.93c-21.69-4.32-41.29-8.42-55.47-11.43c-7.08-1.52-12.82-2.75-16.78-3.6
						c-1.98-0.43-3.52-0.77-4.56-1.01c-1.04-0.25-1.58-0.4-1.57-0.44c0.01-0.04,0.57,0.02,1.62,0.18c1.05,0.16,2.61,0.42,4.61,0.77
						c4,0.68,9.75,1.81,16.87,3.19c14.21,2.83,33.85,6.74,55.54,11.05c10.84,2.15,21.17,4.23,30.58,6.03
						c4.7,0.92,9.17,1.79,13.35,2.6c4.19,0.78,8.09,1.5,11.65,2.16c3.56,0.65,6.78,1.31,9.61,1.77c2.84,0.47,5.28,0.87,7.28,1.2
						c2,0.34,3.55,0.61,4.6,0.81C557.23,350.99,557.78,351.11,557.77,351.16z"/>
				</g>
			</g>
		</g>
		<path class="st8" d="M642.64,289.88c4.05,0.09,7.37,0.64,7,2.49c-0.37,1.84-2.67,4.15-2.67,4.15S642.46,298.17,642.64,289.88z"/>
		<path class="st3" d="M643.57,258.73c-0.37,7.92,0.55,35.75,0.55,35.75c-23.04,20.83-39.99,35.38-49.02,36.86
			c-9.03,1.47-20.46-27.28-5.53-42.94C604.13,276.98,643.57,258.73,643.57,258.73z"/>
		<path class="st8" d="M370.8,268.87c-12.16,1.11-19.35,30.22-3.69,46.26c1.84,1.84,169.18,18.8,214.89,21.38
			c9.21,0.37,18.06-0.74,24.7-6.27c6.63-5.53,35.02-26.91,39.81-32.07c4.79-5.16,3.32-9.58-1.11-5.53
			c-4.42,4.05-35.75,31.7-47.92,37.23c-12.16,5.53-11.43-32.07-2.95-40.54c8.48-8.48,48.29-28.75,50.87-30.96
			c2.58-2.21,1.11-7.37-2.58-5.53C639.14,254.68,380.39,260.39,370.8,268.87z"/>
		<path class="st9" d="M370.9,279.56l49.3,3.87c-7.46,5.25-10.14,24.33,0,32.25c-16.59-1.84-47.64-4.88-47.64-4.88
			C366.75,309.69,362.33,283.98,370.9,279.56z"/>
		<path class="st9" d="M428.4,284.26l49.48,3.04c10.51,3.04,8.85,32.62-1.38,32.9c-12.99-0.83-43.4-4.42-43.4-4.42
			C423.14,315.22,416.51,292.27,428.4,284.26z"/>
		<path class="st9" d="M489.49,288.4c0,0,73.72,3.5,89.38,3.87c-6.08,18.98-2.49,31.42,0.55,37.78c-19.07-0.55-91.87-8.2-91.87-8.2
			C497.05,311.99,494.74,298.08,489.49,288.4z"/>
		<path class="st3" d="M643.01,225.56l-1.84,22.85c-4.05,5.53-47.46,27.09-54.83,28.75c-7.37,1.66-13.36-18.25,1.01-29.67
			C598.78,238.64,643.01,225.56,643.01,225.56z"/>
		<path class="st2" d="M428.67,211.18c-13.82-0.36-74.97,14.43-77.68,18.75c-5.11,8.15-5.25,35.25,3.59,38.56
			c8.85,3.32,222.82,15.48,230,14.93c7.19-0.55,58.61-29.3,63.58-32.07c2.86-2.21-3.69-5.16-5.9-3.5
			c-2.21,1.66-41.28,22.85-54.37,28.57c-8.19,3.57-4.97-25.07,2.77-28.38c7.74-3.32,56.39-19.9,58.61-22.67
			c2.21-2.76,2.76-4.98-1.66-5.53C643.2,219.29,449.68,211.74,428.67,211.18z"/>
		<g>
			<g>
				<g>
					<path class="st10" d="M382.04,271.82c-0.2,0.24-2.31-1.25-4.1-4.81c-1.83-3.51-3.2-8.85-3.41-14.78
						c-0.23-5.93,0.66-11.33,2.14-15.02c0.74-1.84,1.65-3.24,2.49-4.03c0.85-0.8,1.53-0.94,1.6-0.8c0.11,0.18-0.3,0.59-0.8,1.45
						c-0.5,0.86-1.06,2.21-1.52,3.97c-0.93,3.53-1.49,8.67-1.27,14.32c0.2,5.65,1.21,10.7,2.48,14.14
						C380.88,269.72,382.35,271.54,382.04,271.82z"/>
				</g>
			</g>
		</g>
		<g>
			<g>
				<g>
					<path class="st10" d="M391.44,272.37c-0.2,0.24-2.31-1.25-4.1-4.81c-1.83-3.51-3.2-8.85-3.41-14.78
						c-0.23-5.93,0.66-11.33,2.14-15.01c0.74-1.84,1.65-3.24,2.49-4.03c0.85-0.8,1.53-0.94,1.6-0.8c0.11,0.18-0.3,0.59-0.8,1.45
						c-0.5,0.86-1.06,2.21-1.52,3.97c-0.93,3.53-1.49,8.67-1.27,14.32c0.2,5.65,1.21,10.7,2.49,14.14
						C390.27,270.28,391.75,272.09,391.44,272.37z"/>
				</g>
			</g>
		</g>
		<g>
			<g>
				<g>
					<path class="st10" d="M541.65,281.03c-0.23,0.23-2.11-1.42-3.46-5.01c-1.39-3.54-2.21-8.74-2.01-14.43
						c0.18-5.69,1.26-10.78,2.68-14.29c0.71-1.75,1.52-3.1,2.27-3.9c0.75-0.82,1.38-1.03,1.47-0.89c0.12,0.16-0.22,0.6-0.62,1.47
						c-0.41,0.87-0.9,2.2-1.35,3.91c-0.89,3.42-1.64,8.33-1.81,13.78c-0.19,5.44,0.31,10.37,1.16,13.78
						C540.77,278.91,541.97,280.78,541.65,281.03z"/>
				</g>
			</g>
		</g>
		<g>
			<g>
				<g>
					<path class="st10" d="M550.86,281.95c-0.13,0.1-0.64-0.24-1.31-1.09c-0.68-0.84-1.47-2.21-2.13-4
						c-1.35-3.59-2.08-8.87-1.77-14.6c0.29-5.74,1.47-10.86,2.95-14.37c0.74-1.76,1.57-3.11,2.32-3.92c0.76-0.82,1.39-1.04,1.48-0.9
						c0.12,0.16-0.22,0.6-0.63,1.49c-0.42,0.88-0.93,2.22-1.41,3.95c-0.95,3.45-1.79,8.4-2.07,13.89
						c-0.29,5.5,0.12,10.47,0.92,13.93C549.97,279.81,551.19,281.7,550.86,281.95z"/>
				</g>
			</g>
		</g>
		<g>
			<g>
				<g>
					<path class="st11" d="M578.51,244.73c0,0.05-0.78,0.05-2.27,0.01c-1.49-0.05-3.67-0.13-6.49-0.24
						c-5.64-0.21-13.79-0.66-23.87-1.24c-20.15-1.14-47.96-2.91-78.68-4.92c-30.71-2.05-58.52-3.91-78.65-5.25
						c-10.06-0.63-18.21-1.26-23.83-1.57c-2.81-0.17-5-0.3-6.48-0.39c-0.74-0.06-1.31-0.1-1.69-0.13c-0.38-0.04-0.58-0.07-0.58-0.09
						c0-0.05,0.78-0.06,2.26-0.04c1.49,0.03,3.68,0.08,6.5,0.14c5.65,0.15,13.79,0.64,23.87,1.15c20.15,1.12,47.96,2.85,78.68,4.87
						c30.71,2.07,58.52,3.95,78.65,5.31c10.06,0.7,18.21,1.26,23.83,1.65c2.81,0.21,5,0.37,6.48,0.48
						C577.73,244.59,578.51,244.68,578.51,244.73z"/>
				</g>
			</g>
		</g>
		<path class="st12" d="M468.79,297.67c1.47,8.75,0.72,16.25,1.41,24.12c0.69,7.87,2.8,6.62,6.15-3.8
			c3.35-10.42,2.32-14.36,2.32-14.36l-5.3-9.09"/>
		<path class="st13" d="M477.53,301.68c-1.61,12.71-5.88,20.64-7.68,16.29c0.05,1.42,0.11,2.83,0.23,4.23
			c0.69,7.87,3.37,6.4,6.72-4.03c3.35-10.42,1.86-14.55,1.86-14.55L477.53,301.68z"/>
		<path class="st14" d="M528.18,199.39c0,0-28.75,8.29-35.38,1.66c0,0-43.68,16.31-49.48,24.05c-5.8,7.74,18.52,62.2,21.56,74.64
			c3.6,0.83,9.54-3.59,9.54-3.59s-0.42-3.11-1.24-7.46c2.67-9.27,10.03-28.72,14.38-44.78c0,0,14.38-5.53,31.52-14.38
			C536.19,220.67,535.09,212.38,528.18,199.39z M471.5,231.36c-2.21,1.75-3.69,7.56-4.15,16.5c0,0-2.39-16.13-2.39-16.4
			c0.28-1.11,16.86-6.63,25.62-9.68C490.58,221.78,473.72,229.61,471.5,231.36z"/>
		<path class="st12" d="M460.45,303.05c-3.32,7.74-7.63,12.93-11.13,19.56c-3.5,6.64-1.2,6.98,6.91,0.35
			c8.11-6.63,9.12-10.09,9.12-10.09l0.44-10"/>
		<path class="st14" d="M461.83,289.51c0,0.83-2.76,14.65-2.76,14.65c3.32,4.15,5.8,2.76,7.19,1.66c1.66-4.7,4.98-12.44,4.98-12.44"
			/>
		<path class="st15" d="M481.37,100.52c-4.56,16.92,1.06,26.25,8.52,31.06c7.46,4.81,19.63-3.21,21.84-11.81
			c7.88,0.15,7.19-14-0.42-8.17C513.66,101.11,491.18,81.13,481.37,100.52z"/>
		<path class="st15" d="M515.46,146.13c-2.77-2.95-8.66-4.12-9.95-6.52c-1.29-2.4-2.42-13.96-2.42-13.96l-9.56,1.31
			c0,0,2.95,11.43,1.66,13.45c-1.29,2.03-7.74,7.56-7.74,8.29c0,0.74,7.55,21.38,7.55,21.38S504.96,157.18,515.46,146.13z"/>
		<g>
			<g>
				<g>
					<path class="st16" d="M507.9,126.5c0.14,0.12-0.42,0.87-1.46,2.02c-0.57,0.51-1.29,1.08-2.12,1.68
						c-0.89,0.48-1.84,1.11-2.96,1.48c-1.08,0.47-2.19,0.69-3.17,0.92c-1.01,0.13-1.91,0.28-2.67,0.26
						c-0.76,0.03-1.38-0.03-1.8-0.11c-0.42-0.07-0.65-0.16-0.65-0.25c0-0.09,0.24-0.18,0.65-0.27c0.41-0.07,1-0.16,1.72-0.3
						c0.73-0.09,1.57-0.33,2.5-0.51c0.92-0.29,1.94-0.52,2.95-0.96c1.05-0.34,1.94-0.9,2.81-1.29c0.81-0.51,1.54-0.97,2.15-1.35
						C506.98,126.89,507.77,126.38,507.9,126.5z"/>
				</g>
			</g>
		</g>
		<path class="st15" d="M528.36,215.42c4.33,13.45,3.13,15.11,4.42,17.51c1.29,2.4,7.37,7.74,8.11,7.74c1.47,0-3.69-6.63-3.69-7.92
			c11.43,2.58,21.93,0.55,20.83-0.55c-1.11-1.11-16.5-5.9-18.89-6.82c-2.4-0.92-5.44-15.11-5.44-15.11"/>
		<path class="st17" d="M489.06,146.66c-0.18,7,5.58,15.14,8.53,16.61c7.19-5.16,16.59-18.43,16.59-18.43
			c4.24,1.47,8.29,11.24,11.98,24.7s9.21,44.6,9.21,44.6c-2.95,2.76-7.19,2.03-7.19,2.03c-2.21-7.37-3.69-13.82-3.69-13.82
			c-8.11,2.76-25.62,5.71-31.7-1.29c-2.4-6.82-6.45-24.33-6.45-24.33c-1.66,11.06-10.16,22.48-12.26,22.48
			c-4.51,0-9.95-23.87-9.95-40.08c3.69,1.47,5.62-1.38,5.62-1.38c1.11,9.21,4.98,20.83,4.98,20.83c4.61-11.43,5.9-22.12,6.82-23.77
			C482.47,153.13,488.32,147.58,489.06,146.66z"/>
		<path class="st18" d="M502.01,90.32c-8.48-3.89-20.64,4.81-21.38,12.78c2.67-4.86,8.85-5.69,8.85-5.69
			c-1.66,5.35,11.98,10.6,17.14,9.62c0.55,5.25,2.58,7.92,2.58,7.92c2.49-4.96,5.53-4.62,5.53-4.62
			C516.93,101.79,512.14,92.84,502.01,90.32z"/>
		<path class="st18" d="M500.72,90.12c-6.45-11.47,6.82-11.86,13.08-7.78c6.27,4.08,4.24,15.17-2.76,14.58
			C506.06,92.45,500.72,90.12,500.72,90.12z"/>
		<path class="st3" d="M452.36,104.43l5.25-4.63l9.47,13.89c5.39-2.28,21.84-7.33,21.84-7.33l0.62,6.7c0,0-16.38,5.87-21.01,6.29
			C463.9,119.77,453.95,105.81,452.36,104.43z"/>
		<path class="st19" d="M449.67,103.55c0,0,4.14,36.77,4.33,38.24c2.49,1.2,13.82,5.53,13.82,5.53s2.86,1.47,5.25,0.74
			c4.24-0.28,21.47-3.69,22.48-4.24c0.65-2.12-2.58-33.08-2.86-33.91c-1.38-0.46-22.02,4.52-22.02,4.52
			c-1.29,2.12-7.19,1.47-6.82-1.2C459.71,108.53,449.02,101.8,449.67,103.55z"/>
		<path class="st15" d="M464.22,159.58l-0.83-8.57l-3.64-6.22c0,0,6.77-7.33,10.23-8.57c3.46-1.24-4.15,5.94-3.32,5.94
			c6.91-4.29,7.53-4.56,7.67-4.15c0.14,0.41,0.71,4.79,0.3,5.07c-0.42,0.28-7.56,3.78-7.56,3.78l2.03,1.01l0.55,10.23
			C469.66,158.11,467.73,160.96,464.22,159.58z"/>
		<g>
			<g>
				<g>
					<path class="st16" d="M474.36,139.58c0.15,0.36-1.77,1.52-4.13,2.98c-2.36,1.48-4.42,2.51-4.62,2.2
						c-0.19-0.3,1.53-1.81,3.93-3.32C471.97,139.93,474.24,139.26,474.36,139.58z"/>
				</g>
			</g>
		</g>
		<g>
			<g>
				<g>
					<path class="st16" d="M512.6,116.76c-0.29-0.19-0.11-1.24,0.52-2.56c0.34-0.65,0.77-1.21,1.25-1.49
						c0.46-0.29,0.84-0.28,0.91-0.13c0.09,0.18-0.06,0.43-0.25,0.78c-0.2,0.34-0.43,0.86-0.74,1.44
						C513.73,115.99,512.93,116.97,512.6,116.76z"/>
				</g>
			</g>
		</g>
		<g>
			<g>
				<g>
					<path class="st20" d="M488.55,185.47c-0.19,0.04-0.68-1.45-1.46-3.87c-0.76-2.43-1.85-5.79-2.52-9.68
						c-0.14-0.98-0.28-1.94-0.34-2.87c-0.02-0.94-0.12-1.83-0.03-2.72c0.13-1.75,0.48-3.23,0.72-4.48c0.27-1.24,0.42-2.23,0.53-2.93
						c0.07-0.69,0.15-1.09,0.24-1.1c0.09-0.01,0.18,0.38,0.27,1.11c0.04,0.72,0.03,1.79-0.13,3.06c-0.13,1.27-0.38,2.77-0.43,4.39
						c-0.05,0.8,0.07,1.67,0.1,2.56c0.08,0.89,0.22,1.81,0.35,2.76c0.66,3.77,1.59,7.16,2.12,9.66
						C488.55,183.85,488.72,185.44,488.55,185.47z"/>
				</g>
			</g>
		</g>
		<g>
			<g>
				<g>
					<path class="st20" d="M527.99,215.33c-0.2,0.01-1.16-2.89-2.78-7.67c-0.8-2.39-1.73-5.24-2.72-8.42
						c-1-3.18-2.09-6.68-3.11-10.4c-1.13-3.69-1.8-7.31-2.8-10.43c-0.97-3.11-2.45-5.73-3.37-8.13c-0.9-2.4-1.36-4.37-1.84-5.68
						c-0.5-1.29-0.8-2.02-0.71-2.07c0.07-0.04,0.53,0.6,1.18,1.87c0.63,1.28,1.25,3.25,2.23,5.53c0.99,2.26,2.57,4.86,3.66,8.1
						c1.1,3.21,1.79,6.81,2.92,10.47c1.01,3.69,2.06,7.2,3,10.39c0.92,3.2,1.75,6.08,2.45,8.5
						C527.49,212.22,528.16,215.33,527.99,215.33z"/>
				</g>
			</g>
		</g>
		<g>
			<g>
				<g>
					<path class="st20" d="M476.48,186.4c-0.2,0.01-0.39-0.94-0.76-2.42c-0.37-1.49-1.01-3.51-1.73-5.76
						c-0.73-2.26-1.33-4.35-1.59-5.91c-0.26-1.57-0.23-2.56-0.07-2.58c0.2-0.03,0.49,0.89,0.97,2.35c0.48,1.46,1.21,3.47,1.94,5.74
						c0.72,2.28,1.24,4.41,1.39,6C476.78,185.4,476.64,186.4,476.48,186.4z"/>
				</g>
			</g>
		</g>
		<g>
			<g>
				<g>
					<path class="st21" d="M472.52,137.19c-0.33,0.07-1.36-4.54-1.75-10.3c-0.37-5.75-0.36-10.41,0-10.43
						c0.37-0.03,0.94,4.62,1.31,10.34C472.47,132.51,472.9,137.11,472.52,137.19z"/>
				</g>
			</g>
		</g>
		<g>
			<g>
				<g>
					<path class="st21" d="M466.16,136.82c-0.13,0.06-0.74-1.23-1.01-3.42c-0.12-1.07-0.26-2.34-0.42-3.74
						c-0.21-1.43-0.38-3.01-0.48-4.66c-0.2-3.3-0.31-6.25-0.55-8.38c-0.06-0.53-0.11-1.01-0.16-1.43c-0.06-0.42-0.12-0.78-0.16-1.08
						c-0.07-0.6-0.07-0.95,0.01-0.97c0.09-0.03,0.25,0.27,0.48,0.84c0.11,0.29,0.25,0.64,0.39,1.06c0.1,0.42,0.22,0.9,0.35,1.44
						c0.49,2.14,0.75,5.16,0.95,8.44c0.1,1.64,0.23,3.18,0.37,4.59c0.11,1.47,0.13,2.75,0.14,3.83
						C466.1,135.47,466.37,136.74,466.16,136.82z"/>
				</g>
			</g>
		</g>
		<g>
			<g>
				<g>
					<path class="st22" d="M460.26,298.17c-0.18-0.03,0.14-3.03,0.79-7.83c0.71-4.79,1.53-11.45,2.54-18.78
						c0.97-7.34,1.86-13.98,2.5-18.79c0.61-4.81,1.08-7.78,1.27-7.77c0.18,0.01,0.04,3.02-0.34,7.87c-0.16,2.43-0.51,5.3-0.86,8.49
						c-0.38,3.19-0.73,6.7-1.26,10.37c-1.01,7.34-1.97,13.99-2.93,18.76C461.08,295.27,460.44,298.2,460.26,298.17z"/>
				</g>
			</g>
		</g>
		<g>
			<g>
				<g>
					<path class="st22" d="M474.95,283.01c0.34,0.13-0.88,4.18-2.72,9.06c-1.84,4.88-3.61,8.73-3.95,8.6
						c-0.34-0.13,0.88-4.19,2.71-9.06C472.83,286.73,474.6,282.88,474.95,283.01z"/>
				</g>
			</g>
		</g>
		<g>
			<g>
				<g>
					<path class="st22" d="M502.74,216.11c0.15,0.33-5,3.12-11.51,6.23c-6.54,3.08-11.98,5.3-12.12,4.97
						c-0.14-0.34,5.03-3.08,11.55-6.16C497.18,218.04,502.59,215.78,502.74,216.11z"/>
				</g>
			</g>
		</g>
		<g>
			<g>
				<g>
					<path class="st22" d="M497.08,219.15c-0.17,0.29-1.76-0.41-3.25-1.82c-1.48-1.41-2.36-2.82-2.1-3.06c0.27-0.25,1.58,0.74,3,2.1
						C496.15,217.72,497.28,218.82,497.08,219.15z"/>
				</g>
			</g>
		</g>
		<g>
			<g>
				<g>
					<path class="st16" d="M555.64,233.21c-0.07,0.17-1.03,0.03-2.49-0.33c-1.49-0.3-3.55-0.67-5.85-1.09
						c-2.31-0.4-4.41-0.96-5.85-1.36c-0.37-0.1-0.7-0.18-0.99-0.26c-0.29-0.06-0.54-0.11-0.75-0.16c-0.41-0.11-0.65-0.21-0.65-0.3
						c0-0.09,0.24-0.16,0.68-0.21c0.22-0.02,0.49-0.05,0.81-0.06c0.31,0.02,0.67,0.05,1.06,0.07c1.57,0.18,3.62,0.58,5.93,0.98
						c2.31,0.42,4.41,0.95,5.87,1.49C554.86,232.58,555.7,233.04,555.64,233.21z"/>
				</g>
			</g>
		</g>
		<g>
			<g>
				<g>
					<path class="st11" d="M583.85,282.14c0,0.03-0.38,0.11-1.13,0.04c-0.75-0.07-1.87-0.55-2.8-1.67c-0.95-1.11-1.65-2.75-2.1-4.71
						c-0.46-1.95-0.71-4.23-0.76-6.73c-0.04-5.01,0.47-11,2.44-17.38c0.53-1.59,1.12-3.21,2.18-4.74l0.46-0.56
						c0.18-0.18,0.39-0.35,0.58-0.51c0.4-0.24,0.8-0.45,1.2-0.68c0.81-0.45,1.61-0.77,2.43-1.17c3.29-1.46,6.71-2.86,10.24-4.25
						c14.12-5.53,27.04-10.15,36.43-13.41c4.69-1.63,8.51-2.9,11.16-3.74c2.65-0.84,4.14-1.22,4.17-1.14c0.03,0.09-1.41,0.64-4,1.63
						c-2.6,0.98-6.36,2.39-11.01,4.13c-9.29,3.49-22.16,8.24-36.26,13.76c-3.52,1.38-6.95,2.77-10.2,4.2
						c-0.79,0.38-1.63,0.71-2.36,1.12c-0.36,0.2-0.72,0.4-1.08,0.6c-0.13,0.12-0.26,0.22-0.39,0.34l-0.37,0.44
						c-0.91,1.29-1.53,2.86-2.04,4.37c-1.97,6.16-2.59,12.1-2.66,16.99c-0.01,4.88,0.69,8.97,2.33,11.13
						c0.8,1.07,1.76,1.57,2.45,1.72C583.46,282.07,583.85,282.08,583.85,282.14z"/>
				</g>
			</g>
		</g>
		<g>
			<g>
				<g>
					<path class="st23" d="M595.92,334.85c0.01,0.04-0.21,0.14-0.63,0.28c-0.43,0.15-1.08,0.3-1.95,0.38
						c-0.86,0.08-1.96,0.03-3.16-0.37c-1.2-0.4-2.45-1.25-3.46-2.46c-2.04-2.46-3.18-6.1-3.84-10.08c-0.66-4-0.85-8.44-0.88-13.07
						c-0.01-2.3-0.01-4.59,0.2-6.8c0.23-2.2,0.62-4.3,1.13-6.27c0.54-1.96,1.24-3.78,2.02-5.42c0.84-1.61,1.69-3.08,2.68-4.27
						c1.9-2.45,3.96-3.96,5.45-4.79c0.73-0.46,1.36-0.68,1.77-0.86c0.42-0.17,0.64-0.23,0.66-0.19c0.02,0.04-0.17,0.19-0.54,0.43
						c-0.37,0.25-0.95,0.54-1.62,1.05c-1.37,0.94-3.25,2.5-4.98,4.91c-0.9,1.17-1.67,2.62-2.44,4.18c-0.71,1.59-1.34,3.35-1.83,5.25
						c-0.47,1.91-0.82,3.95-1.02,6.08c-0.19,2.14-0.18,4.35-0.17,6.67c0.02,4.6,0.18,8.98,0.76,12.89c0.57,3.89,1.59,7.38,3.36,9.68
						c0.88,1.14,1.94,1.93,3,2.36c1.06,0.42,2.06,0.55,2.88,0.55C594.98,334.98,595.9,334.72,595.92,334.85z"/>
				</g>
			</g>
		</g>
		<g>
			<g>
				<g>
					<path class="st24" d="M563.86,390.69c0,0.02-0.12,0.05-0.36,0.09c-0.24,0.05-0.61,0.11-1.1,0.05
						c-0.96-0.07-2.43-0.62-3.65-2.04c-2.49-2.8-4.12-8.08-4.5-14.54c-0.17-3.25-0.05-6.84,0.76-10.61
						c0.41-1.88,0.99-3.81,1.92-5.68c0.5-0.92,1.02-1.85,1.75-2.68c0.33-0.44,0.77-0.79,1.18-1.17c0.42-0.36,0.87-0.66,1.3-0.99
						c3.6-2.43,7.6-4.44,11.78-6.47c4.18-2.02,8.56-3.99,13.06-5.96c18.03-7.84,34.6-14.32,46.53-19.14
						c5.97-2.4,10.79-4.36,14.11-5.76c1.66-0.7,2.93-1.27,3.79-1.65c0.85-0.4,1.31-0.61,1.33-0.56c0.02,0.04-0.39,0.32-1.21,0.8
						c-0.83,0.46-2.07,1.11-3.7,1.88c-3.26,1.55-8.03,3.65-13.96,6.16c-11.85,5.04-28.36,11.67-46.36,19.49
						c-4.49,1.97-8.86,3.93-13.03,5.92c-4.15,2-8.17,3.99-11.65,6.3c-0.85,0.61-1.65,1.19-2.27,1.94c-0.66,0.73-1.15,1.58-1.62,2.43
						c-0.88,1.74-1.46,3.58-1.88,5.39c-0.83,3.63-1.01,7.15-0.9,10.33c0.25,6.34,1.72,11.52,3.96,14.25
						c1.09,1.38,2.4,1.96,3.29,2.11c0.45,0.1,0.81,0.08,1.05,0.08C563.73,390.65,563.85,390.67,563.86,390.69z"/>
				</g>
			</g>
		</g>
		<g>
			<g>
				<g>
					<path class="st25" d="M481.47,376.31c-0.01,0.04-0.48,0.01-1.37-0.11c-0.89-0.11-2.19-0.3-3.87-0.56
						c-3.36-0.52-8.21-1.31-14.2-2.31c-11.98-2.01-28.51-4.87-46.75-8.12c-18.24-3.24-34.75-6.25-46.68-8.5
						c-5.97-1.12-10.79-2.05-14.12-2.72c-1.66-0.34-2.96-0.61-3.83-0.81c-0.87-0.2-1.33-0.33-1.32-0.37
						c0.01-0.04,0.48-0.01,1.37,0.11c0.89,0.11,2.19,0.3,3.87,0.56c3.36,0.52,8.21,1.31,14.2,2.31c11.98,2.01,28.51,4.87,46.75,8.12
						c18.24,3.24,34.75,6.25,46.68,8.5c5.97,1.12,10.79,2.05,14.12,2.72c1.67,0.34,2.96,0.61,3.83,0.81
						C481.03,376.14,481.48,376.27,481.47,376.31z"/>
				</g>
			</g>
		</g>
		<g>
			<g>
				<g>
					<path class="st26" d="M569.66,430.13c0.01,0.04-0.19,0.13-0.61,0.25c-0.21,0.08-0.47,0.11-0.8,0.13
						c-0.32,0.05-0.7-0.01-1.12-0.08c-0.84-0.2-1.79-0.8-2.49-1.79c-0.72-0.97-1.23-2.24-1.59-3.67c-0.72-2.86-0.9-6.35-0.67-10.17
						c0.25-3.82,0.84-8.01,2.17-12.27c0.34-1.07,0.73-2.1,1.24-3.11c0.25-0.5,0.57-1,0.9-1.42c0.32-0.44,0.65-0.87,1.01-1.26
						c1.41-1.6,2.99-2.9,4.55-4.02c3.13-2.23,6.14-3.87,8.63-5.3c5-2.8,8.04-4.62,8.14-4.47c0.05,0.07-0.65,0.63-1.96,1.56
						c-1.32,0.92-3.27,2.19-5.71,3.7c-2.43,1.53-5.38,3.25-8.39,5.48c-1.49,1.12-2.99,2.38-4.29,3.89
						c-0.34,0.37-0.64,0.77-0.93,1.18c-0.32,0.41-0.56,0.8-0.79,1.26c-0.45,0.9-0.83,1.88-1.15,2.91c-1.28,4.1-1.9,8.22-2.21,11.95
						c-0.29,3.73-0.21,7.14,0.37,9.88c0.29,1.36,0.71,2.56,1.29,3.46c0.57,0.91,1.32,1.47,2.03,1.72c0.36,0.09,0.68,0.2,0.98,0.18
						c0.29,0.03,0.55,0.04,0.75,0C569.42,430.08,569.65,430.09,569.66,430.13z"/>
				</g>
			</g>
		</g>
		<g>
			<g>
				<g>
					<path class="st26" d="M582.75,422.39c0.06,0.14-1.62,1.32-4.6,2.94c-0.75,0.39-1.6,0.8-2.56,1.14
						c-0.97,0.32-2.07,0.66-3.38,0.45c-0.65-0.1-1.33-0.45-1.81-0.99c-0.48-0.53-0.76-1.19-0.94-1.83c-0.16-0.65-0.24-1.3-0.26-1.96
						c-0.02-0.63-0.03-1.26-0.05-1.9c-0.13-5.13,0.21-9.82,0.93-13.14c0.72-3.32,1.67-5.22,1.79-5.17c0.21,0.08-0.41,2.05-0.88,5.33
						c-0.47,3.28-0.66,7.86-0.53,12.96c0.01,0.64,0.03,1.26,0.04,1.88c0.02,0.59,0.08,1.16,0.2,1.68c0.26,1.05,0.84,1.79,1.73,1.95
						c0.89,0.19,1.91-0.04,2.8-0.3c0.91-0.27,1.74-0.62,2.5-0.95C580.76,423.11,582.66,422.2,582.75,422.39z"/>
				</g>
			</g>
		</g>
		<g>
			<g>
				<g>
					<path class="st27" d="M550.68,457.59c0.08,0.13-1.29,1.33-3.83,2.88c-1.28,0.75-2.85,1.63-4.86,2.11
						c-1,0.22-2.16,0.36-3.38-0.12c-0.59-0.26-1.13-0.7-1.49-1.25c-0.37-0.54-0.59-1.14-0.74-1.72c-0.3-1.17-0.37-2.28-0.52-3.29
						c-0.16-1.04-0.29-2.07-0.4-3.04c-0.2-1.95-0.24-3.74-0.09-5.24c0.14-1.5,0.5-2.7,0.88-3.46c0.37-0.77,0.75-1.09,0.8-1.05
						c0.1,0.06-0.12,0.46-0.32,1.23c-0.21,0.77-0.41,1.9-0.43,3.34c-0.02,1.43,0.11,3.15,0.37,5.04c0.13,0.95,0.29,1.94,0.46,2.99
						c0.17,1.07,0.26,2.16,0.52,3.16c0.25,1.01,0.73,1.79,1.49,2.12c0.76,0.32,1.72,0.29,2.6,0.11c1.79-0.36,3.37-1.12,4.66-1.74
						C548.99,458.34,550.57,457.42,550.68,457.59z"/>
				</g>
			</g>
		</g>
		<g>
			<g>
				<g>
					<path class="st28" d="M558.42,431.05c0.02,0.09-0.54,0.32-1.55,0.67c-1.01,0.35-2.49,0.74-4.26,1.47
						c-1.79,0.65-3.9,1.51-6.25,2.44c-1.19,0.45-2.45,0.93-3.74,1.42c-1.33,0.47-2.72,0.8-4.06,1.28c-1.34,0.47-2.63,1-3.65,1.75
						c-1.01,0.69-1.52,1.82-1.88,2.96c-0.66,2.31-0.62,4.61-0.63,6.5c0.02,1.9,0.09,3.46,0.06,4.54c-0.02,1.08-0.12,1.68-0.2,1.68
						c-0.1,0-0.17-0.59-0.31-1.65c-0.13-1.06-0.34-2.6-0.48-4.53c-0.11-1.92-0.28-4.26,0.39-6.87c0.17-0.65,0.43-1.3,0.78-1.94
						c0.18-0.32,0.42-0.63,0.64-0.93c0.28-0.26,0.56-0.52,0.85-0.78c1.21-0.9,2.59-1.47,4-1.96c1.41-0.5,2.81-0.83,4.09-1.26
						c1.29-0.46,2.53-0.91,3.72-1.33c2.38-0.88,4.53-1.65,6.39-2.19c1.82-0.62,3.38-0.89,4.44-1.09
						C557.81,431.03,558.4,430.96,558.42,431.05z"/>
				</g>
			</g>
		</g>
		<g>
			<g>
				<g>
					<path class="st27" d="M534.83,437.69c-0.01,0.04-0.49-0.04-1.38-0.23c-0.89-0.2-2.2-0.51-3.88-0.92
						c-3.36-0.83-8.22-2.07-14.21-3.63c-11.99-3.12-28.52-7.52-46.77-12.45c-18.24-4.94-34.74-9.48-46.67-12.83
						c-5.96-1.68-10.78-3.05-14.11-4.03c-1.66-0.49-2.95-0.88-3.82-1.16c-0.87-0.28-1.32-0.45-1.31-0.49
						c0.01-0.04,0.49,0.04,1.38,0.24c0.89,0.2,2.2,0.51,3.88,0.92c3.36,0.83,8.22,2.07,14.21,3.63
						c11.99,3.12,28.52,7.52,46.77,12.45c18.24,4.94,34.74,9.48,46.67,12.83c5.96,1.68,10.78,3.05,14.11,4.03
						c1.66,0.49,2.95,0.88,3.82,1.16C534.39,437.47,534.84,437.64,534.83,437.69z"/>
				</g>
			</g>
		</g>
		<g>
			<g>
				<g>
					<path class="st27" d="M659.05,389.58c0.05,0.18-2.22,1.3-5.88,2.95c-3.67,1.72-8.77,4.04-14.43,6.52
						c-5.67,2.49-10.81,4.7-14.58,6.21c-3.77,1.51-6.13,2.36-6.2,2.2c-0.07-0.17,2.17-1.32,5.83-3.05
						c3.67-1.72,8.76-4.07,14.42-6.56c5.67-2.49,10.83-4.67,14.6-6.18C656.63,390.21,659,389.41,659.05,389.58z"/>
				</g>
			</g>
		</g>
		<g>
			<g>
				<g>
					<path class="st29" d="M643.57,346.46c0.04,0.08-1.01,0.65-2.94,1.6c-1.93,0.95-4.74,2.28-8.23,3.9
						c-6.97,3.24-16.64,7.64-27.35,12.43c-10.71,4.78-20.44,9.05-27.51,12.07c-3.54,1.51-6.4,2.72-8.4,3.52
						c-2,0.8-3.12,1.21-3.15,1.13s1.01-0.65,2.94-1.6c1.93-0.95,4.74-2.28,8.23-3.9c6.97-3.24,16.64-7.64,27.35-12.43
						c10.71-4.78,20.44-9.05,27.51-12.07c3.54-1.51,6.4-2.72,8.4-3.52C642.41,346.78,643.53,346.37,643.57,346.46z"/>
				</g>
			</g>
		</g>
		<g>
			<g>
				<g>
					<path class="st29" d="M622.19,339.27c0.06,0.17-2.95,1.53-7.87,3.59c-4.91,2.07-11.75,4.78-19.29,7.84
						c-3.78,1.5-7.38,2.93-10.66,4.23c-1.64,0.65-3.22,1.24-4.64,1.83c-1.44,0.62-2.78,1.2-4,1.73c-2.46,1.04-4.5,1.81-5.97,2.16
						c-1.46,0.37-2.3,0.43-2.31,0.36c-0.02-0.11,0.77-0.34,2.16-0.85c1.39-0.49,3.35-1.38,5.75-2.52c1.21-0.57,2.53-1.2,3.94-1.88
						c1.45-0.67,3-1.28,4.63-1.96c3.26-1.33,6.85-2.79,10.62-4.32c7.53-3.06,14.45-5.64,19.45-7.49
						C619,340.15,622.12,339.1,622.19,339.27z"/>
				</g>
			</g>
		</g>
		<g>
			<g>
				<g>
					<path class="st29" d="M645.59,330.42c0.04,0.08-0.77,0.61-2.28,1.49c-1.52,0.87-3.69,2.17-6.47,3.61
						c-5.54,2.91-13.35,6.64-22.13,10.37c-8.8,3.69-16.87,6.78-22.73,8.94c-2.93,1.08-5.32,1.92-6.97,2.49
						c-1.66,0.56-2.59,0.83-2.62,0.74c-0.03-0.08,0.84-0.51,2.44-1.22c1.6-0.71,3.93-1.68,6.82-2.88c5.78-2.38,13.78-5.6,22.56-9.29
						c8.76-3.72,16.6-7.3,22.23-9.99C642.03,331.97,645.49,330.25,645.59,330.42z"/>
				</g>
			</g>
		</g>
		<g>
			<g>
				<g>
					<path class="st29" d="M609.47,385.9c0.08,0.16-1.92,1.41-5.21,3.29c-1.66,0.91-3.57,2.12-5.74,3.39
						c-2.16,1.29-4.52,2.7-7.01,4.19c-2.49,1.49-4.88,2.88-7.06,4.13c-2.16,1.25-4.2,2.37-5.96,3.1c-3.49,1.5-5.53,2.62-5.65,2.44
						c-0.09-0.12,1.84-1.56,5.24-3.28c1.71-0.84,3.59-1.99,5.75-3.31c2.15-1.3,4.52-2.72,7-4.22c2.49-1.49,4.87-2.9,7.08-4.11
						c2.21-1.22,4.17-2.35,5.9-3.16C607.24,386.69,609.39,385.73,609.47,385.9z"/>
				</g>
			</g>
		</g>
		<g>
			<g>
				<g>
					<path class="st29" d="M584.77,404.51c0.17,0.32-2.86,2.19-6.76,4.17c-3.81,2.08-7.06,3.51-7.25,3.21
						c-0.19-0.31,2.78-2.27,6.65-4.38C581.31,405.53,584.61,404.19,584.77,404.51z"/>
				</g>
			</g>
		</g>
		<g>
			<g>
				<g>
					<path class="st29" d="M612.05,393.09c0.05,0.08-0.46,0.49-1.41,1.18c-0.96,0.67-2.34,1.65-4.05,2.85
						c-3.43,2.39-8.09,5.83-13.57,9.2c-1.4,0.8-2.72,1.65-4.09,2.32c-1.35,0.69-2.64,1.41-3.98,1.9c-2.63,0.98-4.99,1.72-6.91,2.5
						c-1.92,0.77-3.4,1.55-4.33,2.21c-0.93,0.66-1.37,1.14-1.46,1.07c-0.06-0.04,0.25-0.65,1.13-1.47c0.88-0.82,2.36-1.76,4.28-2.66
						c1.92-0.91,4.3-1.75,6.83-2.77c1.26-0.49,2.5-1.21,3.82-1.91c1.33-0.67,2.63-1.53,4.01-2.31c5.41-3.33,10.16-6.65,13.74-8.85
						c1.78-1.11,3.25-1.97,4.3-2.51C611.41,393.27,612,393.01,612.05,393.09z"/>
				</g>
			</g>
		</g>
		<g>
			<g>
				<g>
					<path class="st29" d="M619.61,419.07c0.04,0.08-1,0.62-2.92,1.51c-1.92,0.9-4.72,2.15-8.19,3.68
						c-3.49,1.47-7.72,3.03-12.4,4.84c-4.7,1.73-9.9,3.53-15.35,5.44c-5.45,1.9-10.67,3.62-15.36,5.35
						c-4.72,1.66-8.93,3.25-12.55,4.38c-3.6,1.17-6.53,2.1-8.55,2.72c-2.03,0.61-3.16,0.91-3.19,0.82
						c-0.03-0.09,1.05-0.55,3.03-1.31c1.97-0.76,4.84-1.82,8.4-3.11c3.56-1.24,7.76-2.92,12.45-4.65c4.67-1.79,9.89-3.55,15.34-5.46
						c5.45-1.89,10.64-3.69,15.37-5.33c4.68-1.74,8.94-3.21,12.46-4.56c3.5-1.41,6.35-2.54,8.33-3.29S619.57,418.99,619.61,419.07z"
						/>
				</g>
			</g>
		</g>
		<g>
			<g>
				<g>
					<path class="st29" d="M649.28,404.88c0.03,0.09-0.78,0.49-2.28,1.14c-1.5,0.65-3.68,1.55-6.38,2.64
						c-5.42,2.15-12.9,5.14-21.2,8.34c-8.35,3.1-15.9,5.93-21.5,7.6c-2.78,0.88-5.04,1.57-6.61,2.02c-1.57,0.45-2.45,0.66-2.48,0.57
						c-0.03-0.09,0.8-0.46,2.32-1.06c1.52-0.6,3.73-1.42,6.47-2.41c5.51-1.89,13-4.85,21.33-7.94c8.3-3.2,15.83-6.05,21.34-7.98
						c2.75-0.98,4.98-1.74,6.54-2.25C648.38,405.03,649.25,404.8,649.28,404.88z"/>
				</g>
			</g>
		</g>
		<g>
			<g>
				<g>
					<path class="st29" d="M578.69,441c0.07,0.17-2.13,1.26-5.77,2.89c-3.61,1.71-8.76,3.63-14.45,5.76
						c-5.71,2.04-10.92,3.8-14.68,5.06c-3.77,1.25-6.14,1.94-6.2,1.77c-0.06-0.17,2.19-1.17,5.88-2.65
						c3.69-1.5,8.84-3.39,14.55-5.43c5.67-2.12,10.86-3.9,14.54-5.38C576.28,441.63,578.62,440.84,578.69,441z"/>
				</g>
			</g>
		</g>
		<g>
			<g>
				<g>
					<path class="st29" d="M619.97,243.8c0.08,0.16-1.69,1.13-4.63,2.57c-2.92,1.49-7.08,3.22-11.69,5.1
						c-9.25,3.64-16.69,6.69-16.86,6.33c-0.08-0.16,1.71-1.12,4.66-2.52c2.94-1.45,7.1-3.17,11.71-5.04
						C612.41,246.6,619.79,243.44,619.97,243.8z"/>
				</g>
			</g>
		</g>
		<g>
			<g>
				<g>
					<path class="st29" d="M603.11,253.39c0.16,0.31-3.98,2.46-9.25,4.54c-5.25,2.1-9.33,4.11-9.55,3.76
						c-0.18-0.26,3.74-2.86,9.05-4.98C598.65,254.62,602.95,253.05,603.11,253.39z"/>
				</g>
			</g>
		</g>
		<g>
			<g>
				<g>
					<path class="st29" d="M613.62,259.75c0.16,0.33-6.1,3.64-13.98,7.39c-8.02,3.48-14.64,6.03-14.77,5.69
						c-0.13-0.34,6.23-3.42,14.21-6.89C606.95,262.19,613.46,259.42,613.62,259.75z"/>
				</g>
			</g>
		</g>
		<g>
			<g>
				<g>
					<path class="st29" d="M625.13,251.54c0.15,0.29-5.78,3.51-13.46,6.57c-7.67,3.05-13.83,5.58-14,5.23
						c-0.15-0.3,5.83-3.4,13.51-6.45C618.84,253.84,624.95,251.18,625.13,251.54z"/>
				</g>
			</g>
		</g>
		<g>
			<g>
				<g>
					<path class="st29" d="M633.8,295.68c0.11,0.15-2.11,2.05-5.77,4.99c-3.61,3.01-8.55,7.23-14.22,11.67
						c-5.78,4.39-11.31,7.72-14.91,10.72c-0.91,0.74-1.73,1.41-2.45,2c-0.69,0.63-1.28,1.17-1.76,1.61
						c-0.98,0.87-1.56,1.33-1.63,1.27c-0.07-0.06,0.38-0.64,1.26-1.63c0.45-0.49,0.99-1.09,1.62-1.79c0.68-0.65,1.47-1.37,2.35-2.17
						c3.49-3.22,9.05-6.76,14.71-11.06c5.63-4.41,10.68-8.52,14.45-11.36C631.28,297.17,633.69,295.54,633.8,295.68z"/>
				</g>
			</g>
		</g>
		<g>
			<g>
				<g>
					<path class="st29" d="M610.21,310.15c0.22,0.26-2.08,2.46-5.34,4.58c-3.26,2.09-6.08,3.46-6.27,3.16
						c-0.2-0.31,2.32-2.19,5.55-4.26C607.36,311.54,609.96,309.85,610.21,310.15z"/>
				</g>
			</g>
		</g>
		<g>
			<g>
				<g>
					<path class="st29" d="M641.35,275.13c0.06,0.07-0.54,0.71-1.67,1.83c-0.57,0.55-1.28,1.23-2.09,2.01
						c-0.82,0.78-1.76,1.66-2.86,2.57c-4.29,3.74-10.49,8.57-17.6,13.57c-3.57,2.51-7.18,4.55-10.44,6.42
						c-3.27,1.84-6.22,3.47-8.67,4.89c-4.9,2.83-7.77,4.84-7.91,4.66c-0.05-0.07,0.61-0.65,1.87-1.62c1.24-1,3.15-2.29,5.55-3.83
						c2.4-1.53,5.32-3.25,8.55-5.15c3.22-1.92,6.78-3.97,10.3-6.45c7.07-4.96,13.33-9.66,17.75-13.2c1.13-0.85,2.11-1.68,2.97-2.41
						c0.87-0.71,1.62-1.33,2.23-1.83C640.58,275.59,641.29,275.07,641.35,275.13z"/>
				</g>
			</g>
		</g>
		<g>
			<g>
				<g>
					<path class="st29" d="M636.93,275.69c0.2,0.3-3.33,2.88-7.88,5.76c-4.5,2.92-8.31,5.04-8.52,4.74
						c-0.21-0.3,3.29-2.92,7.82-5.86C632.89,277.46,636.73,275.38,636.93,275.69z"/>
				</g>
			</g>
		</g>
		<g>
			<g>
				<g>
					<path class="st26" d="M376.7,394.56c-0.07,0.14-0.67,0.02-1.43-0.65c-0.76-0.67-1.58-1.85-2.29-3.41
						c-1.44-3.12-2.53-7.72-2.71-12.87c-0.17-5.13,0.65-9.93,2.47-13.02c0.89-1.54,2.05-2.56,2.97-2.99c0.23-0.1,0.43-0.2,0.62-0.25
						c0.19-0.04,0.36-0.07,0.49-0.08c0.27-0.02,0.41,0.01,0.44,0.09c0.03,0.09-0.06,0.22-0.23,0.39c-0.09,0.09-0.2,0.18-0.33,0.28
						c-0.13,0.11-0.25,0.26-0.41,0.41c-0.6,0.6-1.32,1.57-1.88,2.98c-1.16,2.81-1.67,7.24-1.5,12.1c0.17,4.87,0.92,9.27,1.82,12.29
						c0.44,1.51,0.93,2.68,1.35,3.43C376.48,394.01,376.81,394.39,376.7,394.56z"/>
				</g>
			</g>
		</g>
		<g>
			<g>
				<g>
					<path class="st26" d="M383.89,395.81c-0.15,0.1-0.55-0.22-1.15-0.91c-0.29-0.35-0.69-0.77-1.02-1.33
						c-0.33-0.56-0.7-1.21-1.09-1.93c-0.35-0.74-0.66-1.59-1.02-2.49c-0.31-0.92-0.56-1.92-0.83-2.97c-0.4-2.13-0.74-4.51-0.68-7
						c-0.04-1.25,0.11-2.46,0.19-3.63c0.16-1.16,0.28-2.29,0.52-3.34c0.4-2.12,1.01-3.97,1.61-5.49c0.34-0.75,0.62-1.43,0.98-2
						c0.17-0.28,0.33-0.54,0.47-0.78c0.18-0.23,0.34-0.43,0.49-0.62c0.28-0.37,0.61-0.61,0.83-0.74c0.22-0.13,0.36-0.16,0.42-0.09
						c0.06,0.07,0.04,0.23-0.03,0.45c-0.08,0.23-0.22,0.49-0.35,0.92c-0.08,0.2-0.16,0.41-0.25,0.65c-0.08,0.25-0.16,0.52-0.25,0.81
						c-0.2,0.56-0.35,1.25-0.56,1.99c-0.34,1.5-0.74,3.28-0.99,5.3c-0.17,1-0.22,2.07-0.34,3.17c-0.03,1.1-0.16,2.24-0.12,3.41
						c-0.06,2.34,0.19,4.54,0.43,6.54c0.19,0.98,0.35,1.93,0.54,2.8c0.25,0.85,0.43,1.67,0.65,2.41c0.26,0.71,0.49,1.37,0.68,1.96
						c0.19,0.59,0.44,1.05,0.58,1.47C383.93,395.18,384.04,395.7,383.89,395.81z"/>
				</g>
			</g>
		</g>
		<g>
			<g>
				<g>
					<path class="st26" d="M525.15,424.83c-0.13,0.11-0.62-0.19-1.29-0.94c-0.68-0.75-1.46-1.99-2.13-3.65
						c-1.37-3.32-2.1-8.25-1.75-13.59c0.34-5.34,1.56-10.09,3.08-13.3c0.75-1.61,1.59-2.83,2.33-3.55c0.75-0.72,1.33-0.91,1.42-0.77
						c0.12,0.16-0.19,0.58-0.6,1.39c-0.41,0.81-0.93,2.03-1.41,3.61c-0.98,3.15-1.87,7.71-2.18,12.79
						c-0.32,5.07,0.08,9.67,0.89,12.84C524.27,422.85,525.47,424.57,525.15,424.83z"/>
				</g>
			</g>
		</g>
		<g>
			<g>
				<g>
					<path class="st26" d="M530.41,425.38c-0.25,0.18-1.69-1.46-2.65-4.71c-0.96-3.22-1.42-7.87-0.96-12.87
						c0.41-5.02,1.49-9.46,2.67-12.56c0.57-1.55,1.21-2.76,1.74-3.54c0.57-0.78,1-1.11,1.14-1.01c0.16,0.11,0.03,0.62-0.21,1.45
						c-0.22,0.86-0.56,2.08-0.88,3.64c-0.68,3.09-1.43,7.43-1.83,12.24c-0.44,4.81-0.28,9.17,0.15,12.25
						C530,423.36,530.77,425.17,530.41,425.38z"/>
				</g>
			</g>
		</g>
		<path class="st10" d="M494.71,401.91c-0.15,5.56-21.48,5.91-47.65,0.78c-26.16-5.13-47.25-13.79-47.1-19.35
			c0.15-5.56,21.48-5.9,47.65-0.78C473.77,387.69,494.86,396.35,494.71,401.91z"/>
		<g>
			<g>
				<g>
					<path class="st25" d="M564.69,396.22c-0.01,0.04-0.78-0.05-2.24-0.29c-1.45-0.24-3.6-0.61-6.36-1.07
						c-5.51-0.99-13.49-2.41-23.35-4.18c-19.71-3.58-46.91-8.63-76.95-14.27c-30.04-5.65-57.22-10.83-76.88-14.66
						c-9.83-1.94-17.78-3.51-23.28-4.59c-2.74-0.57-4.87-1.01-6.32-1.31c-1.44-0.31-2.2-0.5-2.19-0.55
						c0.01-0.04,0.78,0.05,2.23,0.29c1.45,0.24,3.6,0.61,6.36,1.07c5.51,0.99,13.49,2.41,23.35,4.18
						c19.71,3.58,46.92,8.63,76.96,14.28c30.04,5.65,57.22,10.84,76.89,14.66c9.83,1.94,17.78,3.51,23.28,4.59
						c2.74,0.57,4.87,1.01,6.32,1.31C563.94,395.99,564.69,396.17,564.69,396.22z"/>
				</g>
			</g>
		</g>
		<g>
			<g>
				<g>
					<path class="st29" d="M463.35,112.17c-0.17,0.12-1.94-2.34-4.05-5.36c-1.09-1.48-2.08-2.84-2.91-3.7
						c-0.38-0.47-0.75-0.77-0.99-1.01c-0.24-0.24-0.36-0.39-0.34-0.43c0.02-0.04,0.2,0.04,0.49,0.22c0.29,0.18,0.73,0.45,1.17,0.89
						c0.95,0.81,2.01,2.14,3.12,3.64C461.97,109.48,463.48,112.08,463.35,112.17z"/>
				</g>
			</g>
		</g>
		<g>
			<g>
				<g>
					<path class="st29" d="M466.11,113.14c0,0.04-0.28,0.02-0.62-0.27c-0.33-0.28-0.71-0.78-1.11-1.41c-0.4-0.64-0.82-1.42-1.27-2.3
						c-0.23-0.43-0.46-0.88-0.71-1.35c-0.24-0.43-0.58-0.91-0.85-1.4c-1.13-1.98-2.1-3.76-3.02-4.89c-0.89-1.17-1.72-1.55-1.68-1.64
						c0.01-0.08,1.01,0.19,2.04,1.34c1.05,1.1,2.13,2.9,3.24,4.86c0.28,0.5,0.58,0.92,0.85,1.43c0.25,0.48,0.47,0.95,0.68,1.39
						c0.42,0.89,0.79,1.68,1.13,2.33c0.34,0.65,0.64,1.16,0.89,1.47C465.92,113,466.12,113.08,466.11,113.14z"/>
				</g>
			</g>
		</g>
		<g>
			<g>
				<g>
					<path class="st29" d="M488.64,106.32c0.04,0.06-0.99,0.78-2.87,1.45c-1.89,0.68-4.53,1.22-7.34,2.29
						c-2.86,0.96-5.45,1.8-7.34,2.38c-1.89,0.57-3.07,0.88-3.09,0.8c-0.02-0.09,1.11-0.56,2.96-1.24c1.85-0.69,4.41-1.59,7.25-2.55
						c2.83-1.08,5.56-1.56,7.41-2.11C487.51,106.78,488.59,106.22,488.64,106.32z"/>
				</g>
			</g>
		</g>
		<g>
			<g>
				<g>
					<path class="st29" d="M488.92,108.44c0.07,0.14-2.66,1.51-6.28,2.55c-3.64,0.99-6.72,1.04-6.72,0.9
						c-0.01-0.22,2.97-0.56,6.54-1.54C486.03,109.33,488.84,108.24,488.92,108.44z"/>
				</g>
			</g>
		</g>
		<g>
			<g>
				<g>
					<path class="st20" d="M506.98,180.22c-0.12,0.34-3.56-0.67-7.59-2.28c-4.04-1.55-7.4-2.47-7.33-2.89
						c0.04-0.31,3.67,0.07,7.8,1.65C503.94,178.34,507.1,179.87,506.98,180.22z"/>
				</g>
			</g>
		</g>
		<g>
			<g>
				<g>
					<path class="st20" d="M503.21,180.96c-0.12,0.34-1.39,0.18-2.82-0.35c-1.43-0.54-2.48-1.25-2.34-1.58
						c0.14-0.34,1.41-0.18,2.82,0.35C502.28,179.91,503.33,180.62,503.21,180.96z"/>
				</g>
			</g>
		</g>
		<path class="st13" d="M465.5,310.69c-7.87,9.34-15.45,13.52-14.67,9.13c-0.69,1.15-1.37,2.31-2,3.5c-3.5,6.63-0.55,6.82,7.56,0.18
			c8.11-6.63,9.03-10.69,9.03-10.69L465.5,310.69z"/>
		<g>
			<g>
				<g>
					<path class="st30" d="M354.03,264.26c-0.18,0.04-0.66-1.62-1.31-4.33c-0.36-1.35-0.58-3-0.88-4.83
						c-0.34-1.82-0.46-3.85-0.61-5.99c-0.04-0.53-0.07-1.06-0.11-1.58c-0.03-0.52,0-1.04,0-1.54c0.02-1.01,0.04-1.98,0.06-2.91
						c-0.01-1.85,0.26-3.53,0.57-4.92c0.33-1.38,0.78-2.49,1.3-3.14c0.21-0.35,0.49-0.54,0.66-0.67c0.17-0.13,0.27-0.18,0.3-0.14
						c0.03,0.03-0.01,0.15-0.11,0.33c-0.09,0.18-0.28,0.39-0.41,0.75c-0.34,0.65-0.62,1.71-0.82,3.05
						c-0.18,1.34-0.35,2.96-0.27,4.78c0,0.91,0.01,1.86,0.02,2.85c0.01,0.49-0.02,1,0.01,1.51c0.04,0.51,0.07,1.03,0.11,1.55
						C353.05,257.43,354.47,264.17,354.03,264.26z"/>
				</g>
			</g>
		</g>
		<g>
			<g>
				<g>
					<path class="st30" d="M354.4,241.04c-0.18-0.03-0.28-0.49-0.34-1.21c-0.05-0.73-0.09-1.75,0.12-2.91
						c0.2-1.16,0.75-2.27,1.48-2.77c0.72-0.51,1.28-0.44,1.31-0.29c0.07,0.19-0.31,0.46-0.66,0.96c-0.36,0.49-0.65,1.31-0.83,2.34
						c-0.19,1.03-0.3,2.03-0.49,2.75C354.82,240.63,354.58,241.07,354.4,241.04z"/>
				</g>
			</g>
		</g>
		<g>
			<g>
				<g>
					<path class="st30" d="M353.85,247.49c-0.36-0.06-0.59-0.89-0.5-1.87c0.01-1,0.32-1.82,0.68-1.82c0.36,0,0.65,0.84,0.64,1.87
						C354.58,246.74,354.21,247.55,353.85,247.49z"/>
				</g>
			</g>
		</g>
		<g>
			<g>
				<g>
					<path class="st30" d="M417.8,213.58c0.03,0.18-3.18,1.03-8.38,2.26c-5.18,1.37-12.34,3.27-20.24,5.37
						c-8,1.9-15.19,3.45-20.32,4.99c-2.57,0.75-4.65,1.36-6.09,1.79c-1.44,0.41-2.25,0.6-2.29,0.52c-0.03-0.09,0.73-0.44,2.12-1
						c0.7-0.27,1.56-0.61,2.55-0.99c1.01-0.35,2.16-0.75,3.42-1.2c5.08-1.78,12.35-3.5,20.27-5.38c7.91-2.07,15.1-3.89,20.36-5
						C414.49,213.93,417.77,213.4,417.8,213.58z"/>
				</g>
			</g>
		</g>
		<g>
			<g>
				<g>
					<path class="st30" d="M579.61,241.96c-0.01,0.18-2.1,0.19-5.45,0.05c-3.36-0.15-7.99-0.39-13.09-0.75
						c-10.21-0.65-18.49-0.92-18.5-1.33c0-0.18,2.08-0.31,5.44-0.36c3.37-0.11,8.01,0.11,13.14,0.37c5.11,0.36,9.74,0.75,13.08,1.14
						C577.57,241.46,579.63,241.78,579.61,241.96z"/>
				</g>
			</g>
		</g>
		<g>
			<g>
				<g>
					<path class="st30" d="M603.76,234.59c0.14,0.31-4.62,2.75-10.79,5.11c-6.19,2.31-11.42,3.5-11.51,3.18
						c-0.11-0.38,4.91-2.13,11.05-4.42C598.62,236.13,603.6,234.24,603.76,234.59z"/>
				</g>
			</g>
		</g>
		<g>
			<g>
				<g>
					<path class="st30" d="M573.9,269.05c-0.18,0-0.36-1.35-0.43-3.54c-0.07-2.19-0.01-5.24,0.51-8.58
						c0.28-1.67,0.66-3.25,1.15-4.64c0.51-1.39,1.09-2.61,1.76-3.53c1.31-1.89,2.68-2.49,2.73-2.37c0.13,0.18-0.94,1.01-1.94,2.86
						c-1.04,1.82-1.87,4.67-2.4,7.9c-0.5,3.24-0.71,6.22-0.88,8.39C574.23,267.7,574.09,269.05,573.9,269.05z"/>
				</g>
			</g>
		</g>
		<g>
			<g>
				<g>
					<path class="st30" d="M571.87,255.78c-0.32-0.09-0.17-2.25,0.74-4.84c0.5-1.28,1.14-2.4,1.81-3.06
						c0.66-0.66,1.23-0.89,1.32-0.76c0.13,0.16-0.18,0.61-0.57,1.32c-0.41,0.71-0.85,1.76-1.32,2.96
						C572.99,253.83,572.25,255.89,571.87,255.78z"/>
				</g>
			</g>
		</g>
		<g>
			<g>
				<g>
					<path class="st30" d="M640.06,221.32c0.11,0.34-3.23,1.62-7.42,2.79c-4.18,1.19-7.55,2.17-7.69,1.82
						c-0.13-0.31,3.11-1.88,7.33-3.08C636.49,221.66,639.95,220.97,640.06,221.32z"/>
				</g>
			</g>
		</g>
		<g>
			<g>
				<g>
					<path class="st23" d="M408.77,276.61c0,0.18-2.18,0.27-5.72,0.26c-3.55,0.08-8.41-0.3-13.78-0.71
						c-10.7-1.02-19.38-1.33-19.39-1.76c0-0.18,2.18-0.27,5.72-0.26c3.55-0.08,8.41,0.3,13.78,0.71
						C400.08,275.86,408.76,276.18,408.77,276.61z"/>
				</g>
			</g>
		</g>
		<g>
			<g>
				<g>
					<path class="st23" d="M420.38,277.16c-0.01,0.37-1.57,0.69-3.59,0.77c-2.07,0.05-3.7-0.64-3.6-0.96
						c0.11-0.39,1.64-0.31,3.57-0.36C418.72,276.54,420.39,276.8,420.38,277.16z"/>
				</g>
			</g>
		</g>
		<g>
			<g>
				<g>
					<path class="st23" d="M404.16,318.08c0.01,0.31-5.31,0.51-11.75-0.41c-6.42-0.97-11.53-2.2-11.47-2.54
						c0.06-0.37,5.28,0.28,11.65,1.24C398.97,317.27,404.16,317.66,404.16,318.08z"/>
				</g>
			</g>
		</g>
		<g>
			<g>
				<g>
					<path class="st23" d="M410.43,318.45c0,0.36-1.12,0.65-2.51,0.64c-1.41-0.09-2.51-0.46-2.47-0.82c0.05-0.36,1.17-0.58,2.5-0.5
						C409.32,317.78,410.43,318.08,410.43,318.45z"/>
				</g>
			</g>
		</g>
		<g>
			<g>
				<g>
					<path class="st23" d="M528.93,329.32c0,0.32-5.8,0.32-12.79-0.68c-6.97-0.97-12.63-1.29-12.64-1.71
						c-0.02-0.3,5.79-0.58,12.81,0.41C523.3,328.33,528.94,328.91,528.93,329.32z"/>
				</g>
			</g>
		</g>
		<g>
			<g>
				<g>
					<path class="st23" d="M537.04,330.24c-0.05,0.36-1.21,0.59-2.6,0.51c-1.41-0.03-2.56-0.33-2.56-0.69c0-0.36,1.16-0.66,2.6-0.62
						C535.94,329.52,537.09,329.88,537.04,330.24z"/>
				</g>
			</g>
		</g>
		<g>
			<g>
				<g>
					<path class="st7" d="M366.75,341.48c-0.16,0.07-0.85-1.02-1.61-2.96c-0.76-1.93-1.58-4.71-1.84-7.91
						c-0.11-1.6-0.03-3.15,0.19-4.54c0.18-0.69,0.27-1.35,0.52-1.94c0.11-0.29,0.22-0.58,0.32-0.85c0.14-0.26,0.27-0.51,0.4-0.74
						c1.08-1.88,2.31-2.55,2.37-2.44c0.16,0.17-0.77,1.06-1.54,2.86c-0.09,0.22-0.19,0.46-0.29,0.71c-0.07,0.26-0.15,0.53-0.22,0.8
						c-0.19,0.54-0.23,1.17-0.37,1.8c-0.14,1.29-0.18,2.73-0.08,4.25c0.25,3.04,0.89,5.76,1.41,7.72
						C366.54,340.19,366.93,341.41,366.75,341.48z"/>
				</g>
			</g>
		</g>
		<g>
			<g>
				<g>
					<path class="st7" d="M368.04,327.84c-0.18-0.02-0.31-0.48-0.36-1.25c-0.05-0.76-0.01-1.83,0.31-3c0.31-1.16,0.98-2.24,1.8-2.67
						c0.81-0.43,1.38-0.24,1.38-0.09c0.03,0.2-0.41,0.38-0.82,0.83c-0.43,0.44-0.8,1.25-1.09,2.27
						C368.73,326,368.44,327.89,368.04,327.84z"/>
				</g>
			</g>
		</g>
		<g>
			<g>
				<g>
					<path class="st7" d="M548.47,373.92c-0.17,0-0.36-1.32-0.38-3.49c-0.01-2.15,0.18-5.17,1.09-8.4c0.47-1.61,1.12-3.09,1.85-4.36
						c0.78-1.25,1.61-2.29,2.46-3.02c1.68-1.48,3.03-1.87,3.08-1.75c0.11,0.2-1.04,0.88-2.43,2.41c-0.34,0.38-0.71,0.81-1.04,1.32
						c-0.37,0.47-0.67,1.06-1.02,1.64c-0.62,1.21-1.19,2.61-1.64,4.13c-0.87,3.06-1.2,5.98-1.43,8.08
						C548.8,372.59,548.66,373.92,548.47,373.92z"/>
				</g>
			</g>
		</g>
		<g>
			<g>
				<g>
					<path class="st7" d="M545.89,361.39c-0.17-0.03-0.21-0.74-0.01-1.86c0.22-1.11,0.75-2.63,1.73-4.1
						c1.03-1.46,2.37-2.45,3.43-2.93c1.09-0.42,1.81-0.48,1.85-0.32c0.06,0.19-0.53,0.56-1.39,1.13c-0.84,0.63-1.89,1.58-2.81,2.87
						C546.92,358.81,546.29,361.47,545.89,361.39z"/>
				</g>
			</g>
		</g>
		<g>
			<g>
				<g>
					<path class="st24" d="M589.75,378.34c0.07,0.18-1.39,0.97-3.77,2.21c-2.39,1.22-5.68,2.96-9.53,4.49
						c-0.98,0.35-1.92,0.71-2.85,1.02c-0.95,0.26-1.86,0.52-2.73,0.76c-0.89,0.16-1.73,0.32-2.52,0.46
						c-0.79,0.14-1.59,0.21-2.3,0.14c-1.43-0.1-2.56-0.66-3.1-1.27c-0.31-0.27-0.42-0.58-0.51-0.77c-0.08-0.19-0.1-0.3-0.06-0.32
						c0.04-0.02,0.14,0.04,0.29,0.17c0.15,0.13,0.31,0.35,0.62,0.52c0.56,0.41,1.54,0.75,2.8,0.73c1.24,0.04,2.77-0.5,4.48-0.85
						c0.83-0.26,1.71-0.53,2.62-0.81c0.9-0.33,1.82-0.67,2.77-1.02c3.77-1.49,7.12-3.09,9.62-4.1
						C588.08,378.68,589.69,378.18,589.75,378.34z"/>
				</g>
			</g>
		</g>
		<g>
			<g>
				<g>
					<path class="st24" d="M653.15,345.26c0.17,0.34-3.39,2.91-7.92,6.13c-2.41,1.51-4.71,2.48-6.33,3.25
						c-1.59,0.79-2.6,1.29-2.71,1.13c-0.1-0.13,0.73-0.92,2.26-1.94c1.54-1,3.79-2.11,6.05-3.54
						C648.97,347.12,653,344.95,653.15,345.26z"/>
				</g>
			</g>
		</g>
		<g>
			<g>
				<g>
					<path class="st26" d="M609.19,406.72c-0.1-0.15,2.5-2,6.81-4.79c4.31-2.8,10.33-6.55,17.01-10.65
						c6.67-4.11,12.72-7.8,17.06-10.53c2.17-1.36,3.91-2.49,5.07-3.31c0.58-0.41,1.02-0.75,1.26-1c0.06-0.07,0.09-0.11,0.1-0.15
						c0-0.07-0.05-0.08-0.08-0.1c-0.07-0.01-0.11-0.02-0.09-0.03c0.03-0.01,0.1-0.02,0.22-0.01c0.05,0.02,0.13,0.04,0.16,0.12
						c0.01,0.11-0.03,0.22-0.08,0.31c-0.21,0.36-0.61,0.77-1.16,1.25c-1.09,0.96-2.76,2.21-4.88,3.68
						c-4.23,2.94-10.21,6.77-16.88,10.87c-6.68,4.11-12.78,7.73-17.21,10.32C612.06,405.31,609.29,406.88,609.19,406.72z"/>
				</g>
			</g>
		</g>
		<g>
			<g>
				<g>
					<path class="st28" d="M355.51,404.14c-0.31,0.11-1.4-2.39-1.81-5.67c-0.35-3.28,0-5.94,0.33-5.94c0.39,0,0.64,2.61,0.98,5.78
						C355.4,401.48,355.89,404.02,355.51,404.14z"/>
				</g>
			</g>
		</g>
		<g>
			<g>
				<g>
					<path class="st28" d="M444.52,416.31c-0.05,0.18-2.35-0.33-6.04-1.29c-3.68-0.99-8.75-2.36-14.36-3.87
						c-2.8-0.73-5.44-1.59-7.89-2.09c-2.45-0.55-4.68-1.04-6.53-1.58c-3.72-1.02-5.8-2.29-5.72-2.41c0.09-0.2,2.25,0.74,5.95,1.51
						c1.84,0.42,4.07,0.81,6.55,1.29c2.5,0.44,5.15,1.27,7.97,2c2.81,0.77,5.49,1.5,7.91,2.23c2.4,0.74,4.57,1.43,6.38,2.02
						C442.36,415.31,444.57,416.13,444.52,416.31z"/>
				</g>
			</g>
		</g>
		<g>
			<g>
				<g>
					<path class="st28" d="M454.47,418.89c-0.08,0.37-1.63,0.19-3.29-0.39c-0.83-0.27-1.56-0.53-2.09-0.72
						c-0.53-0.19-0.88-0.35-0.88-0.54c0-0.17,0.38-0.34,1.01-0.38c0.64-0.04,1.49,0.11,2.37,0.39
						C453.32,417.85,454.55,418.54,454.47,418.89z"/>
				</g>
			</g>
		</g>
		<g>
			<g>
				<g>
					<path class="st28" d="M529.3,438.61c0,0.16-1.5,0.29-3.93,0.18c-2.42-0.2-5.73-0.76-9.31-1.55c-3.58-0.8-6.81-1.56-9.13-2.27
						c-2.31-0.73-3.68-1.36-3.62-1.52c0.06-0.19,1.52,0.13,3.85,0.61c2.34,0.47,5.6,1.08,9.18,1.89c3.58,0.79,6.79,1.48,9.14,1.91
						C527.82,438.21,529.3,438.41,529.3,438.61z"/>
				</g>
			</g>
		</g>
		<g>
			<g>
				<g>
					<path class="st28" d="M526.53,457.04c-0.18,0-0.35-0.98-0.59-2.57c-0.23-1.59-0.54-3.81-0.53-6.32
						c0.02-2.5,0.48-4.86,1.44-6.32c0.94-1.48,2.02-1.88,2.08-1.75c0.13,0.18-0.65,0.81-1.25,2.19c-0.64,1.36-0.92,3.5-0.94,5.9
						c-0.01,2.4,0.14,4.61,0.14,6.23C526.88,456.02,526.71,457.04,526.53,457.04z"/>
				</g>
			</g>
		</g>
		<g>
			<g>
				<g>
					<path class="st28" d="M523.95,446.35c-0.35,0-0.7-1.37-0.57-3.14c0.08-0.88,0.28-1.68,0.57-2.22c0.28-0.54,0.59-0.8,0.74-0.73
						c0.17,0.08,0.18,0.45,0.15,0.98c-0.04,0.53-0.07,1.26-0.15,2.08C524.58,444.96,524.33,446.35,523.95,446.35z"/>
				</g>
			</g>
		</g>
		<g>
			<g>
				<g>
					<path class="st27" d="M655.55,414.1c0.06,0.02,0,0.49-0.49,1.11c-0.48,0.62-1.33,1.37-2.48,2.11c-2.29,1.52-5.75,2.9-9.45,4.56
						c-3.8,1.6-7.3,2.71-9.74,3.72c-2.45,0.98-3.9,1.76-4.02,1.58c-0.09-0.13,1.22-1.2,3.63-2.43c2.4-1.25,5.9-2.51,9.61-4.08
						c3.73-1.67,7.2-2.9,9.5-4.15c1.16-0.61,2.03-1.19,2.57-1.66C655.23,414.4,655.44,414.05,655.55,414.1z"/>
				</g>
			</g>
		</g>
		<g>
			<g>
				<g>
					<path class="st23" d="M614.63,321.58c0.09,0.16-1.06,1.03-2.92,2.49c-1.87,1.43-4.46,3.45-7.72,5.17
						c-1.63,0.85-3.29,1.51-4.9,1.82c-1.6,0.33-3.15,0.24-4.35-0.14c-1.2-0.39-2.04-0.99-2.53-1.47c-0.49-0.48-0.68-0.81-0.63-0.87
						c0.15-0.19,1.21,0.95,3.39,1.43c1.08,0.22,2.42,0.21,3.86-0.15c1.44-0.34,2.99-0.98,4.55-1.8c3.12-1.64,5.78-3.53,7.79-4.76
						C613.18,322.04,614.54,321.42,614.63,321.58z"/>
				</g>
			</g>
		</g>
		<g>
			<g>
				<g>
					<path class="st23" d="M648.73,291.35c0.14,0.12-0.37,0.96-1.28,2.25c-0.91,1.28-2.24,3.02-3.89,4.8
						c-1.69,1.76-3.46,3.15-4.88,3.92c-1.44,0.74-2.42,0.98-2.48,0.83c-0.08-0.19,0.74-0.72,1.98-1.61
						c1.23-0.92,2.79-2.34,4.43-4.04c1.61-1.73,3.04-3.35,4.13-4.49C647.83,291.87,648.59,291.23,648.73,291.35z"/>
				</g>
			</g>
		</g>
		<g>
			<g>
				<g>
					<path class="st11" d="M613.89,266.93c0.07,0.17-1.93,1.25-5.2,2.85c-3.28,1.61-7.81,3.84-12.81,6.3
						c-2.46,1.22-4.84,2.71-7.47,3.02c-0.65,0.08-1.33,0.05-1.99-0.15c-0.66-0.22-1.22-0.63-1.6-1.09
						c-0.81-0.92-1.18-1.93-1.46-2.83c-0.52-1.83-0.6-3.34-0.62-4.38c0-1.04,0.1-1.61,0.19-1.61c0.1,0,0.17,0.56,0.33,1.57
						c0.17,1,0.39,2.46,0.99,4.12c0.59,1.61,1.74,3.68,4.03,3.16c1.09-0.16,2.25-0.59,3.4-1.13c1.17-0.52,2.31-1.25,3.59-1.84
						c2.52-1.22,4.93-2.42,7.14-3.4c2.2-0.99,4.19-1.86,5.88-2.57C611.7,267.54,613.83,266.76,613.89,266.93z"/>
				</g>
			</g>
		</g>
		<g>
			<g>
				<g>
					<path class="st11" d="M647.53,248.04c0.12,0.12-0.21,0.67-0.93,1.38c-0.73,0.69-1.89,1.48-3.23,2.16
						c-1.34,0.67-2.57,1.18-3.47,1.53c-0.89,0.35-1.48,0.53-1.58,0.37c-0.1-0.15,0.33-0.61,1.14-1.19c0.81-0.57,2-1.23,3.31-1.88
						c1.3-0.66,2.45-1.27,3.27-1.73C646.85,248.2,647.39,247.91,647.53,248.04z"/>
				</g>
			</g>
		</g>
	</g>
</g>
<g id="background_1">
</g>
<g id="designed_by_freepik">
	<path class="st3" d="M282.39,487.24v-0.16c-0.22,0.25-0.43,0.45-0.64,0.61c-0.21,0.16-0.44,0.28-0.69,0.36
		c-0.25,0.08-0.52,0.12-0.81,0.12c-0.39,0-0.75-0.08-1.08-0.25c-0.33-0.16-0.62-0.4-0.86-0.7c-0.24-0.3-0.42-0.66-0.55-1.07
		c-0.12-0.41-0.19-0.86-0.19-1.33c0-1.01,0.25-1.8,0.74-2.37c0.49-0.56,1.14-0.85,1.95-0.85c0.47,0,0.86,0.08,1.18,0.24
		c0.32,0.16,0.63,0.41,0.94,0.74v-2.39c0-0.33,0.06-0.58,0.2-0.75c0.13-0.17,0.32-0.26,0.57-0.26c0.25,0,0.43,0.08,0.57,0.23
		c0.13,0.16,0.2,0.38,0.2,0.69v7.14c0,0.31-0.07,0.54-0.21,0.69c-0.14,0.15-0.33,0.23-0.55,0.23c-0.22,0-0.4-0.08-0.55-0.24
		C282.46,487.77,282.39,487.54,282.39,487.24z M279.21,484.86c0,0.44,0.07,0.81,0.2,1.12c0.14,0.31,0.32,0.54,0.56,0.7
		c0.24,0.16,0.5,0.24,0.78,0.24c0.29,0,0.55-0.08,0.78-0.22c0.23-0.15,0.42-0.38,0.56-0.68c0.14-0.31,0.21-0.69,0.21-1.15
		c0-0.43-0.07-0.8-0.21-1.11c-0.14-0.31-0.33-0.55-0.57-0.71c-0.24-0.16-0.5-0.24-0.79-0.24c-0.3,0-0.56,0.08-0.79,0.25
		c-0.23,0.17-0.41,0.41-0.54,0.72C279.27,484.08,279.21,484.45,279.21,484.86z M289.53,485.27h-3.17c0,0.37,0.08,0.69,0.22,0.97
		c0.14,0.28,0.34,0.49,0.58,0.63c0.24,0.14,0.5,0.21,0.79,0.21c0.19,0,0.37-0.02,0.53-0.07c0.16-0.05,0.32-0.12,0.47-0.21
		c0.15-0.1,0.29-0.2,0.41-0.31c0.13-0.11,0.29-0.26,0.49-0.45c0.08-0.07,0.2-0.11,0.36-0.11c0.16,0,0.3,0.05,0.4,0.14
		c0.1,0.09,0.15,0.22,0.15,0.39c0,0.15-0.06,0.32-0.17,0.51c-0.12,0.2-0.29,0.38-0.52,0.56c-0.23,0.18-0.52,0.33-0.87,0.45
		c-0.35,0.12-0.75,0.18-1.21,0.18c-1.04,0-1.85-0.3-2.42-0.89c-0.58-0.59-0.87-1.4-0.87-2.41c0-0.48,0.07-0.92,0.21-1.33
		c0.14-0.41,0.35-0.76,0.62-1.05c0.27-0.29,0.61-0.52,1.01-0.67c0.4-0.16,0.84-0.23,1.33-0.23c0.63,0,1.17,0.13,1.63,0.4
		c0.46,0.27,0.79,0.61,1.02,1.04c0.22,0.42,0.34,0.85,0.34,1.29c0,0.41-0.12,0.67-0.35,0.79
		C290.28,485.21,289.95,485.27,289.53,485.27z M286.36,484.35h2.94c-0.04-0.55-0.19-0.97-0.45-1.24c-0.26-0.28-0.6-0.41-1.02-0.41
		c-0.4,0-0.73,0.14-0.99,0.42C286.58,483.39,286.42,483.81,286.36,484.35z M296.91,486.05c0,0.45-0.11,0.83-0.33,1.15
		c-0.22,0.32-0.54,0.56-0.96,0.72c-0.42,0.16-0.94,0.25-1.55,0.25c-0.58,0-1.08-0.09-1.49-0.27c-0.41-0.18-0.72-0.4-0.92-0.67
		c-0.2-0.27-0.3-0.54-0.3-0.8c0-0.18,0.06-0.33,0.19-0.46c0.13-0.13,0.29-0.19,0.48-0.19c0.17,0,0.3,0.04,0.39,0.12
		c0.09,0.08,0.18,0.2,0.26,0.35c0.17,0.29,0.37,0.5,0.6,0.65c0.23,0.14,0.55,0.21,0.95,0.21c0.33,0,0.59-0.07,0.8-0.22
		c0.21-0.14,0.31-0.31,0.31-0.5c0-0.28-0.11-0.49-0.32-0.62c-0.21-0.13-0.57-0.26-1.06-0.38c-0.56-0.14-1.01-0.28-1.36-0.44
		c-0.35-0.15-0.63-0.35-0.84-0.6c-0.21-0.25-0.31-0.55-0.31-0.92c0-0.32,0.1-0.63,0.29-0.92c0.19-0.29,0.48-0.52,0.86-0.69
		c0.38-0.17,0.83-0.26,1.37-0.26c0.42,0,0.79,0.04,1.13,0.13c0.33,0.09,0.61,0.2,0.84,0.35c0.22,0.15,0.39,0.31,0.51,0.49
		c0.12,0.18,0.17,0.35,0.17,0.52c0,0.18-0.06,0.34-0.19,0.46c-0.13,0.12-0.3,0.18-0.53,0.18c-0.17,0-0.31-0.05-0.42-0.14
		c-0.12-0.1-0.25-0.24-0.4-0.43c-0.12-0.16-0.27-0.29-0.43-0.38c-0.17-0.1-0.39-0.14-0.68-0.14c-0.29,0-0.54,0.06-0.73,0.19
		c-0.19,0.12-0.29,0.28-0.29,0.46c0,0.17,0.07,0.31,0.21,0.42c0.14,0.11,0.33,0.2,0.58,0.27c0.24,0.07,0.57,0.16,1,0.26
		c0.5,0.12,0.91,0.27,1.23,0.44c0.32,0.17,0.56,0.37,0.72,0.6C296.83,485.49,296.91,485.75,296.91,486.05z M298.56,480.83
		c-0.22,0-0.42-0.07-0.58-0.21c-0.16-0.14-0.24-0.33-0.24-0.59c0-0.23,0.08-0.42,0.25-0.57c0.16-0.15,0.36-0.22,0.57-0.22
		c0.21,0,0.39,0.07,0.56,0.2c0.16,0.14,0.24,0.33,0.24,0.59c0,0.25-0.08,0.44-0.24,0.58C298.96,480.76,298.78,480.83,298.56,480.83z
		 M299.36,482.5v4.68c0,0.32-0.08,0.57-0.23,0.74c-0.16,0.17-0.35,0.25-0.59,0.25c-0.24,0-0.43-0.09-0.58-0.25
		c-0.15-0.17-0.22-0.41-0.22-0.73v-4.63c0-0.32,0.07-0.56,0.22-0.72c0.15-0.16,0.34-0.24,0.58-0.24c0.24,0,0.43,0.08,0.59,0.24
		C299.28,481.99,299.36,482.21,299.36,482.5z M306.45,482.77v4.7c0,0.54-0.06,1-0.17,1.39c-0.11,0.39-0.3,0.71-0.55,0.96
		c-0.25,0.25-0.58,0.44-0.99,0.56c-0.41,0.12-0.92,0.18-1.53,0.18c-0.56,0-1.06-0.08-1.5-0.23c-0.44-0.16-0.78-0.36-1.01-0.6
		c-0.24-0.25-0.36-0.5-0.36-0.76c0-0.2,0.07-0.36,0.2-0.48c0.13-0.12,0.3-0.19,0.49-0.19c0.24,0,0.44,0.11,0.62,0.31
		c0.09,0.11,0.18,0.22,0.27,0.32c0.09,0.11,0.2,0.2,0.31,0.28c0.11,0.08,0.25,0.13,0.41,0.17c0.16,0.04,0.34,0.05,0.54,0.05
		c0.42,0,0.75-0.06,0.98-0.17c0.23-0.12,0.39-0.28,0.49-0.49c0.09-0.21,0.15-0.43,0.16-0.67c0.02-0.24,0.03-0.62,0.04-1.15
		c-0.25,0.35-0.54,0.62-0.86,0.8c-0.33,0.18-0.71,0.27-1.17,0.27c-0.54,0-1.01-0.14-1.42-0.41c-0.4-0.28-0.72-0.67-0.93-1.16
		c-0.22-0.5-0.33-1.07-0.33-1.73c0-0.49,0.07-0.92,0.2-1.31c0.13-0.39,0.32-0.72,0.57-0.99c0.24-0.27,0.53-0.47,0.85-0.61
		c0.32-0.13,0.67-0.2,1.05-0.2c0.46,0,0.86,0.09,1.19,0.26c0.33,0.18,0.65,0.45,0.94,0.83v-0.22c0-0.28,0.07-0.5,0.21-0.65
		c0.14-0.15,0.32-0.23,0.54-0.23c0.31,0,0.52,0.1,0.62,0.3C306.4,482.09,306.45,482.39,306.45,482.77z M301.76,484.82
		c0,0.66,0.14,1.15,0.43,1.49c0.29,0.34,0.66,0.5,1.11,0.5c0.27,0,0.52-0.07,0.76-0.22c0.24-0.14,0.43-0.36,0.59-0.65
		c0.15-0.29,0.22-0.64,0.22-1.06c0-0.66-0.14-1.17-0.44-1.54c-0.29-0.37-0.67-0.55-1.15-0.55c-0.46,0-0.83,0.18-1.11,0.53
		C301.9,483.67,301.76,484.17,301.76,484.82z M309.02,482.48v0.2c0.29-0.38,0.6-0.65,0.94-0.83c0.34-0.18,0.72-0.26,1.16-0.26
		c0.43,0,0.81,0.09,1.14,0.28c0.34,0.19,0.59,0.45,0.75,0.79c0.11,0.2,0.18,0.41,0.21,0.64c0.03,0.23,0.05,0.52,0.05,0.88v3.01
		c0,0.32-0.07,0.57-0.22,0.74c-0.15,0.17-0.34,0.25-0.58,0.25c-0.24,0-0.44-0.09-0.59-0.25c-0.15-0.17-0.23-0.41-0.23-0.73v-2.7
		c0-0.54-0.07-0.94-0.22-1.22c-0.15-0.28-0.44-0.42-0.89-0.42c-0.29,0-0.55,0.09-0.79,0.26c-0.24,0.17-0.41,0.41-0.52,0.71
		c-0.08,0.24-0.12,0.69-0.12,1.35v2.03c0,0.33-0.08,0.57-0.23,0.74c-0.15,0.16-0.35,0.25-0.59,0.25c-0.23,0-0.42-0.09-0.57-0.25
		c-0.15-0.17-0.23-0.41-0.23-0.73v-4.68c0-0.31,0.07-0.54,0.2-0.69c0.13-0.15,0.32-0.23,0.55-0.23c0.14,0,0.27,0.03,0.39,0.1
		c0.12,0.07,0.21,0.17,0.28,0.3C308.99,482.12,309.02,482.29,309.02,482.48z M318.87,485.27h-3.17c0.01,0.37,0.08,0.69,0.22,0.97
		c0.14,0.28,0.34,0.49,0.58,0.63c0.24,0.14,0.5,0.21,0.79,0.21c0.19,0,0.37-0.02,0.53-0.07c0.16-0.05,0.31-0.12,0.46-0.21
		c0.15-0.1,0.29-0.2,0.42-0.31c0.13-0.11,0.29-0.26,0.49-0.45c0.08-0.07,0.2-0.11,0.36-0.11c0.17,0,0.3,0.05,0.4,0.14
		c0.1,0.09,0.15,0.22,0.15,0.39c0,0.15-0.06,0.32-0.17,0.51c-0.12,0.2-0.29,0.38-0.52,0.56c-0.23,0.18-0.52,0.33-0.87,0.45
		c-0.35,0.12-0.75,0.18-1.21,0.18c-1.04,0-1.85-0.3-2.43-0.89c-0.58-0.59-0.87-1.4-0.87-2.41c0-0.48,0.07-0.92,0.21-1.33
		c0.14-0.41,0.35-0.76,0.62-1.05c0.27-0.29,0.61-0.52,1.01-0.67c0.4-0.16,0.84-0.23,1.33-0.23c0.63,0,1.17,0.13,1.63,0.4
		c0.46,0.27,0.79,0.61,1.02,1.04c0.22,0.42,0.34,0.85,0.34,1.29c0,0.41-0.12,0.67-0.35,0.79
		C319.62,485.21,319.29,485.27,318.87,485.27z M315.7,484.35h2.94c-0.04-0.55-0.19-0.97-0.45-1.24c-0.26-0.28-0.6-0.41-1.02-0.41
		c-0.4,0-0.73,0.14-0.99,0.42C315.92,483.39,315.76,483.81,315.7,484.35z M325.47,487.24v-0.16c-0.22,0.25-0.43,0.45-0.64,0.61
		c-0.21,0.16-0.44,0.28-0.69,0.36c-0.25,0.08-0.52,0.12-0.81,0.12c-0.39,0-0.75-0.08-1.08-0.25c-0.33-0.16-0.62-0.4-0.86-0.7
		c-0.24-0.3-0.42-0.66-0.55-1.07c-0.12-0.41-0.19-0.86-0.19-1.33c0-1.01,0.25-1.8,0.74-2.37c0.49-0.56,1.14-0.85,1.95-0.85
		c0.47,0,0.86,0.08,1.18,0.24c0.32,0.16,0.63,0.41,0.94,0.74v-2.39c0-0.33,0.07-0.58,0.2-0.75c0.13-0.17,0.32-0.26,0.57-0.26
		c0.25,0,0.43,0.08,0.57,0.23c0.13,0.16,0.2,0.38,0.2,0.69v7.14c0,0.31-0.07,0.54-0.21,0.69c-0.14,0.15-0.33,0.23-0.55,0.23
		c-0.22,0-0.4-0.08-0.55-0.24C325.54,487.77,325.47,487.54,325.47,487.24z M322.28,484.86c0,0.44,0.07,0.81,0.21,1.12
		c0.14,0.31,0.32,0.54,0.56,0.7c0.24,0.16,0.5,0.24,0.78,0.24c0.29,0,0.55-0.08,0.78-0.22c0.23-0.15,0.42-0.38,0.56-0.68
		c0.14-0.31,0.21-0.69,0.21-1.15c0-0.43-0.07-0.8-0.21-1.11c-0.14-0.31-0.33-0.55-0.57-0.71c-0.24-0.16-0.5-0.24-0.79-0.24
		c-0.3,0-0.56,0.08-0.79,0.25c-0.23,0.17-0.41,0.41-0.54,0.72C322.35,484.08,322.28,484.45,322.28,484.86z M332.08,480.1v2.47
		c0.3-0.31,0.61-0.56,0.93-0.73c0.32-0.17,0.71-0.25,1.18-0.25c0.54,0,1.01,0.13,1.41,0.38c0.4,0.26,0.72,0.63,0.94,1.11
		c0.22,0.48,0.34,1.06,0.34,1.72c0,0.49-0.06,0.94-0.19,1.35c-0.13,0.41-0.3,0.76-0.54,1.06c-0.24,0.3-0.53,0.53-0.86,0.7
		c-0.34,0.16-0.71,0.25-1.12,0.25c-0.25,0-0.48-0.03-0.7-0.09c-0.22-0.06-0.41-0.13-0.56-0.23c-0.15-0.1-0.29-0.2-0.39-0.3
		c-0.11-0.1-0.25-0.26-0.43-0.46v0.16c0,0.3-0.07,0.54-0.22,0.69c-0.14,0.16-0.33,0.23-0.56,0.23c-0.23,0-0.41-0.08-0.55-0.23
		c-0.14-0.16-0.21-0.39-0.21-0.69v-7.07c0-0.33,0.06-0.57,0.2-0.74s0.32-0.25,0.55-0.25c0.25,0,0.44,0.08,0.58,0.24
		C332.02,479.58,332.08,479.81,332.08,480.1z M332.16,484.91c0,0.65,0.15,1.14,0.44,1.49c0.29,0.35,0.68,0.52,1.16,0.52
		c0.41,0,0.76-0.18,1.05-0.53c0.29-0.36,0.44-0.86,0.44-1.52c0-0.43-0.06-0.79-0.18-1.1c-0.12-0.31-0.3-0.55-0.52-0.71
		c-0.22-0.17-0.49-0.25-0.79-0.25c-0.31,0-0.58,0.08-0.82,0.25c-0.24,0.17-0.43,0.41-0.57,0.73
		C332.23,484.09,332.16,484.47,332.16,484.91z M338.98,488.37l0.15-0.36l-1.99-5.02c-0.12-0.29-0.18-0.5-0.18-0.63
		c0-0.14,0.04-0.27,0.11-0.38c0.07-0.12,0.17-0.21,0.29-0.29c0.13-0.07,0.25-0.11,0.39-0.11c0.23,0,0.41,0.07,0.53,0.22
		c0.12,0.15,0.22,0.36,0.31,0.64l1.37,3.98l1.3-3.71c0.1-0.3,0.2-0.54,0.28-0.71c0.08-0.17,0.17-0.29,0.26-0.34
		c0.09-0.06,0.22-0.09,0.4-0.09c0.12,0,0.24,0.03,0.35,0.1c0.11,0.07,0.2,0.15,0.26,0.27c0.06,0.11,0.09,0.23,0.09,0.35
		c-0.02,0.08-0.04,0.18-0.08,0.32c-0.04,0.14-0.08,0.28-0.13,0.42l-2.11,5.53c-0.18,0.48-0.36,0.87-0.54,1.14
		c-0.17,0.28-0.4,0.49-0.69,0.64c-0.29,0.15-0.67,0.22-1.16,0.22c-0.47,0-0.83-0.05-1.07-0.15c-0.24-0.11-0.36-0.29-0.36-0.56
		c0-0.19,0.06-0.33,0.17-0.43c0.11-0.1,0.28-0.15,0.5-0.15c0.09,0,0.17,0.01,0.26,0.04c0.1,0.02,0.19,0.04,0.27,0.04
		c0.19,0,0.33-0.03,0.44-0.08c0.11-0.05,0.2-0.15,0.29-0.29C338.77,488.83,338.87,488.63,338.98,488.37z M362.43,481.72
		c-0.54,0-0.81,0.19-0.81,0.58c0,0.17,0.07,0.32,0.2,0.42c0.13,0.11,0.31,0.16,0.56,0.16h0.45v4.29c0,0.32,0.07,0.56,0.23,0.73
		c0.15,0.17,0.34,0.25,0.57,0.25c0.24,0,0.44-0.08,0.59-0.25c0.15-0.17,0.23-0.41,0.23-0.73v-4.29h0.39c0.29,0,0.52-0.03,0.68-0.11
		c0.16-0.07,0.24-0.24,0.24-0.5c0-0.37-0.31-0.56-0.92-0.56h-0.39v-0.38c0-0.32,0.04-0.57,0.12-0.74c0.09-0.17,0.27-0.26,0.56-0.26
		c0.11,0,0.24,0.01,0.39,0.03c0.16,0.03,0.27,0.04,0.33,0.04c0.13,0,0.25-0.05,0.35-0.16c0.1-0.11,0.15-0.24,0.15-0.38
		c0-0.47-0.47-0.7-1.42-0.7c-0.53,0-0.95,0.07-1.26,0.2c-0.31,0.14-0.53,0.35-0.65,0.65c-0.13,0.3-0.19,0.7-0.19,1.21v0.49H362.43
		 M367.73,485.83c0-0.49,0.01-0.9,0.04-1.24c0.03-0.34,0.09-0.63,0.17-0.88c0.08-0.24,0.2-0.43,0.35-0.55
		c0.15-0.12,0.34-0.19,0.58-0.19c0.17,0,0.37,0.04,0.6,0.11c0.23,0.07,0.37,0.11,0.43,0.11c0.16,0,0.3-0.06,0.44-0.19
		c0.13-0.13,0.2-0.29,0.2-0.49c0-0.28-0.16-0.51-0.48-0.68c-0.32-0.17-0.65-0.26-0.99-0.26s-0.61,0.09-0.82,0.26
		c-0.2,0.17-0.4,0.42-0.59,0.75c-0.01-0.33-0.08-0.58-0.2-0.75c-0.12-0.17-0.31-0.26-0.58-0.26c-0.53,0-0.79,0.37-0.79,1.09v4.51
		c0,0.32,0.08,0.57,0.23,0.73c0.15,0.17,0.34,0.25,0.58,0.25c0.24,0,0.43-0.08,0.58-0.25c0.15-0.16,0.23-0.41,0.23-0.74V485.83
		 M375.17,485.27H372c0.01,0.37,0.08,0.69,0.22,0.97c0.15,0.28,0.34,0.49,0.58,0.63c0.24,0.14,0.5,0.21,0.79,0.21
		c0.19,0,0.37-0.02,0.53-0.07c0.16-0.04,0.31-0.12,0.46-0.21c0.15-0.09,0.29-0.2,0.42-0.31c0.13-0.11,0.29-0.26,0.49-0.45
		c0.08-0.07,0.2-0.11,0.36-0.11c0.17,0,0.3,0.05,0.4,0.14c0.1,0.09,0.15,0.22,0.15,0.38c0,0.15-0.05,0.32-0.17,0.51
		c-0.12,0.2-0.29,0.38-0.52,0.57c-0.23,0.18-0.53,0.33-0.87,0.45c-0.35,0.12-0.75,0.18-1.21,0.18c-1.04,0-1.85-0.29-2.43-0.89
		c-0.58-0.6-0.87-1.4-0.87-2.42c0-0.48,0.07-0.92,0.22-1.33c0.14-0.41,0.35-0.76,0.62-1.05c0.27-0.29,0.61-0.52,1.01-0.67
		c0.4-0.15,0.84-0.23,1.33-0.23c0.63,0,1.17,0.13,1.63,0.4c0.45,0.26,0.8,0.61,1.02,1.03c0.23,0.42,0.34,0.85,0.34,1.29
		c0,0.4-0.12,0.67-0.35,0.79C375.92,485.21,375.59,485.27,375.17,485.27 M372,484.35h2.94c-0.04-0.55-0.19-0.97-0.45-1.24
		c-0.26-0.28-0.6-0.41-1.02-0.41c-0.4,0-0.74,0.14-0.99,0.42C372.21,483.39,372.05,483.81,372,484.35 M381.9,485.27h-3.17
		c0,0.37,0.08,0.69,0.22,0.97c0.14,0.28,0.34,0.49,0.57,0.63c0.24,0.14,0.5,0.21,0.79,0.21c0.19,0,0.37-0.02,0.53-0.07
		c0.16-0.04,0.32-0.12,0.47-0.21c0.15-0.09,0.29-0.2,0.41-0.31c0.13-0.11,0.29-0.26,0.49-0.45c0.08-0.07,0.2-0.11,0.35-0.11
		c0.17,0,0.3,0.05,0.41,0.14c0.1,0.09,0.15,0.22,0.15,0.38c0,0.15-0.05,0.32-0.17,0.51c-0.11,0.2-0.28,0.38-0.52,0.57
		c-0.23,0.18-0.52,0.33-0.87,0.45c-0.35,0.12-0.75,0.18-1.21,0.18c-1.04,0-1.85-0.29-2.43-0.89c-0.58-0.6-0.87-1.4-0.87-2.42
		c0-0.48,0.07-0.92,0.22-1.33c0.14-0.41,0.35-0.76,0.62-1.05c0.27-0.29,0.61-0.52,1.01-0.67c0.4-0.15,0.84-0.23,1.33-0.23
		c0.63,0,1.17,0.13,1.63,0.4c0.45,0.26,0.79,0.61,1.01,1.03c0.22,0.42,0.34,0.85,0.34,1.29c0,0.4-0.12,0.67-0.35,0.79
		C382.65,485.21,382.32,485.27,381.9,485.27 M378.74,484.35h2.93c-0.04-0.55-0.19-0.97-0.45-1.24c-0.26-0.28-0.6-0.41-1.03-0.41
		c-0.4,0-0.73,0.14-1,0.42C378.95,483.39,378.79,483.81,378.74,484.35 M385.45,482.49v0.19c0.3-0.38,0.62-0.65,0.95-0.83
		c0.32-0.18,0.7-0.27,1.11-0.27c0.5,0,0.96,0.13,1.38,0.38c0.42,0.26,0.75,0.63,0.99,1.13c0.24,0.5,0.37,1.08,0.37,1.76
		c0,0.5-0.07,0.96-0.21,1.38c-0.14,0.42-0.33,0.77-0.58,1.05c-0.24,0.28-0.53,0.5-0.87,0.65c-0.34,0.15-0.69,0.23-1.08,0.23
		c-0.46,0-0.85-0.09-1.16-0.28c-0.31-0.18-0.61-0.46-0.9-0.81v2.43c0,0.71-0.26,1.07-0.78,1.07c-0.31,0-0.51-0.09-0.61-0.28
		c-0.09-0.19-0.15-0.45-0.15-0.8v-6.99c0-0.31,0.07-0.54,0.2-0.69c0.13-0.15,0.32-0.23,0.55-0.23c0.23,0,0.41,0.08,0.56,0.23
		C385.38,481.97,385.45,482.2,385.45,482.49 M388.62,484.84c0-0.43-0.07-0.8-0.2-1.1c-0.13-0.31-0.31-0.54-0.54-0.71
		c-0.23-0.16-0.49-0.25-0.77-0.25c-0.45,0-0.82,0.18-1.13,0.53c-0.31,0.35-0.46,0.87-0.46,1.56c0,0.64,0.15,1.14,0.46,1.5
		c0.3,0.36,0.68,0.54,1.13,0.54c0.27,0,0.52-0.08,0.75-0.23c0.23-0.16,0.41-0.39,0.55-0.7
		C388.55,485.66,388.62,485.29,388.62,484.84 M391.88,480.83c-0.23,0-0.42-0.07-0.58-0.21c-0.16-0.14-0.24-0.33-0.24-0.59
		c0-0.23,0.08-0.42,0.25-0.57c0.16-0.14,0.35-0.22,0.57-0.22c0.21,0,0.4,0.07,0.56,0.2c0.16,0.14,0.24,0.33,0.24,0.59
		c0,0.25-0.08,0.45-0.24,0.58C392.29,480.76,392.1,480.83,391.88,480.83 M392.68,482.5v4.68c0,0.32-0.08,0.57-0.23,0.73
		c-0.16,0.17-0.35,0.25-0.59,0.25c-0.24,0-0.43-0.08-0.58-0.25c-0.15-0.17-0.22-0.42-0.22-0.73v-4.64c0-0.32,0.07-0.56,0.22-0.72
		c0.15-0.17,0.34-0.25,0.58-0.25c0.24,0,0.43,0.08,0.59,0.25C392.6,481.99,392.68,482.21,392.68,482.5 M397.9,487.43
		c0.18,0.28,0.33,0.47,0.44,0.58c0.11,0.11,0.26,0.16,0.46,0.16c0.22,0,0.41-0.07,0.55-0.22c0.14-0.15,0.21-0.35,0.21-0.61
		c0-0.09-0.03-0.19-0.08-0.29c-0.05-0.1-0.14-0.24-0.26-0.44l-1.66-2.61l0.86-0.79c0.44-0.4,0.66-0.71,0.66-0.95
		c0-0.19-0.07-0.35-0.2-0.48c-0.14-0.13-0.31-0.2-0.51-0.2c-0.17,0-0.31,0.04-0.43,0.13c-0.12,0.09-0.29,0.25-0.52,0.49l-1.82,1.91
		v-3.93c0-0.33-0.08-0.58-0.22-0.75c-0.15-0.17-0.35-0.26-0.59-0.26c-0.25,0-0.46,0.09-0.59,0.28c-0.14,0.19-0.21,0.46-0.21,0.82
		v6.91c0,0.32,0.07,0.57,0.21,0.73c0.14,0.17,0.34,0.25,0.59,0.25c0.21,0,0.4-0.08,0.57-0.25c0.16-0.17,0.25-0.41,0.25-0.72v-1.29
		l0.88-0.83L397.9,487.43 M401.42,488.16c0.24,0,0.44-0.08,0.62-0.24c0.17-0.16,0.26-0.38,0.26-0.66c0-0.24-0.09-0.45-0.26-0.63
		c-0.18-0.17-0.39-0.26-0.64-0.26c-0.25,0-0.46,0.09-0.63,0.26c-0.17,0.17-0.26,0.38-0.26,0.62c0,0.29,0.09,0.51,0.27,0.67
		C400.96,488.09,401.17,488.16,401.42,488.16 M409.47,486.16c0-0.17-0.07-0.33-0.2-0.48c-0.13-0.15-0.29-0.22-0.49-0.22
		c-0.17,0-0.31,0.05-0.42,0.15c-0.11,0.1-0.22,0.24-0.32,0.43c-0.18,0.31-0.38,0.54-0.62,0.69c-0.23,0.15-0.51,0.22-0.83,0.22
		c-0.24,0-0.46-0.04-0.67-0.14c-0.2-0.09-0.37-0.23-0.52-0.41c-0.14-0.18-0.25-0.4-0.32-0.65c-0.07-0.25-0.11-0.54-0.11-0.84
		c0-0.64,0.15-1.16,0.44-1.53c0.29-0.37,0.68-0.56,1.16-0.56c0.33,0,0.61,0.07,0.82,0.23c0.22,0.15,0.42,0.38,0.62,0.67
		c0.11,0.16,0.21,0.27,0.3,0.34c0.09,0.07,0.2,0.11,0.34,0.11c0.2,0,0.38-0.07,0.52-0.2c0.14-0.13,0.21-0.3,0.21-0.49
		c0-0.19-0.06-0.4-0.19-0.62c-0.13-0.22-0.31-0.42-0.55-0.62c-0.24-0.19-0.54-0.35-0.89-0.47c-0.35-0.12-0.73-0.18-1.15-0.18
		c-0.67,0-1.26,0.14-1.75,0.42c-0.48,0.28-0.86,0.67-1.11,1.18c-0.26,0.51-0.39,1.1-0.39,1.76c0,0.98,0.28,1.76,0.84,2.35
		c0.56,0.58,1.34,0.88,2.35,0.88c0.47,0,0.89-0.06,1.27-0.19c0.38-0.13,0.69-0.29,0.93-0.5c0.25-0.21,0.43-0.42,0.55-0.65
		C409.41,486.58,409.47,486.36,409.47,486.16 M416.45,484.88c0,0.48-0.08,0.93-0.22,1.33c-0.15,0.41-0.37,0.76-0.65,1.05
		c-0.28,0.29-0.63,0.52-1.02,0.67c-0.4,0.15-0.84,0.23-1.33,0.23c-0.49,0-0.93-0.08-1.32-0.24c-0.39-0.16-0.73-0.38-1.02-0.68
		c-0.29-0.3-0.5-0.65-0.66-1.05c-0.14-0.4-0.22-0.85-0.22-1.33c0-0.49,0.08-0.94,0.22-1.35c0.15-0.41,0.37-0.76,0.65-1.04
		c0.28-0.29,0.62-0.51,1.02-0.67c0.4-0.16,0.84-0.23,1.32-0.23c0.49,0,0.93,0.08,1.33,0.24c0.4,0.16,0.74,0.38,1.03,0.67
		c0.29,0.3,0.5,0.64,0.65,1.04C416.38,483.94,416.45,484.39,416.45,484.88 M414.83,484.88c0-0.66-0.15-1.18-0.44-1.54
		c-0.29-0.37-0.68-0.55-1.17-0.55c-0.32,0-0.6,0.08-0.84,0.25c-0.24,0.16-0.43,0.4-0.56,0.73c-0.13,0.32-0.2,0.69-0.2,1.12
		c0,0.42,0.06,0.79,0.19,1.11c0.13,0.32,0.31,0.56,0.55,0.73c0.24,0.17,0.52,0.25,0.84,0.25c0.49,0,0.88-0.18,1.17-0.55
		C414.68,486.04,414.83,485.53,414.83,484.88 M422.63,484.99c0-0.69,0.06-1.18,0.18-1.45c0.11-0.21,0.26-0.38,0.45-0.51
		c0.19-0.13,0.4-0.19,0.61-0.19c0.26,0,0.46,0.07,0.6,0.21c0.13,0.14,0.21,0.32,0.24,0.53c0.03,0.21,0.04,0.49,0.04,0.84v2.72
		c0,0.34,0.08,0.59,0.23,0.76c0.16,0.17,0.36,0.26,0.6,0.26c0.25,0,0.46-0.09,0.61-0.25c0.15-0.17,0.23-0.43,0.23-0.77v-3.16
		c0-0.63-0.07-1.09-0.21-1.38c-0.16-0.32-0.4-0.57-0.71-0.75c-0.32-0.17-0.71-0.26-1.14-0.26c-0.38,0-0.73,0.08-1.04,0.24
		c-0.31,0.16-0.61,0.41-0.88,0.74c-0.19-0.32-0.43-0.57-0.72-0.73c-0.29-0.16-0.64-0.24-1.05-0.24c-0.39,0-0.75,0.08-1.07,0.24
		c-0.32,0.16-0.62,0.4-0.9,0.74v-0.15c0-0.26-0.07-0.47-0.22-0.62c-0.15-0.14-0.33-0.22-0.56-0.22c-0.23,0-0.41,0.08-0.55,0.24
		c-0.14,0.16-0.21,0.39-0.21,0.69v4.63c0,0.34,0.08,0.59,0.23,0.76c0.16,0.17,0.36,0.26,0.6,0.26c0.25,0,0.45-0.09,0.6-0.26
		c0.15-0.17,0.23-0.43,0.23-0.76v-2.19c0-0.68,0.09-1.21,0.25-1.56c0.17-0.37,0.52-0.55,1.04-0.55c0.26,0,0.46,0.07,0.58,0.22
		c0.12,0.14,0.2,0.33,0.23,0.55c0.03,0.22,0.04,0.54,0.04,0.95v2.58c0,0.34,0.08,0.59,0.23,0.77c0.15,0.17,0.35,0.25,0.59,0.25
		c0.25,0,0.46-0.09,0.61-0.25c0.15-0.17,0.23-0.43,0.23-0.77V484.99 M347.28,484.48C347.28,484.48,347.28,484.48,347.28,484.48
		C347.28,484.48,347.28,484.48,347.28,484.48z M347.36,485C347.36,485,347.36,485,347.36,485c-0.03-0.15-0.05-0.29-0.07-0.44
		C347.31,484.71,347.33,484.86,347.36,485z M347.9,486.5c0-0.01-0.01-0.01-0.01-0.02C347.89,486.49,347.89,486.5,347.9,486.5z
		 M347.85,486.4c-0.01-0.03-0.03-0.06-0.04-0.08C347.82,486.35,347.83,486.38,347.85,486.4z M347.51,485.58
		c0.08,0.25,0.18,0.49,0.29,0.72C347.69,486.06,347.59,485.82,347.51,485.58L347.51,485.58z M353.54,478.28
		c0.31,0,0.54,0.03,0.81,0.07l0.08-0.48c0,0-0.73-0.22-1.69-0.15l-0.08-0.26c0.3-0.06,0.52-0.33,0.52-0.64
		c0-0.36-0.3-0.66-0.66-0.66c-0.37,0-0.66,0.29-0.66,0.66c0,0.32,0.22,0.58,0.52,0.64l0.08,0.29c-1.02,0.14-1.83,0.54-1.83,0.54
		l0.14,0.44c0.62-0.21,1.15-0.33,1.64-0.38C352.9,478.3,353.25,478.28,353.54,478.28z M347.88,480.69L347.88,480.69
		c0.03-0.04,0.05-0.07,0.08-0.1l-0.2-0.14l-0.3-0.22c-0.02,0.02-0.5,0.46-0.88,1.28c-0.02-0.03-0.04-0.05-0.06-0.07
		c-0.11-0.12-0.27-0.19-0.47-0.18c0,0-0.01,0-0.01,0c-0.13,0-0.21-0.04-0.27-0.09c0.05-0.07,0.09-0.16,0.09-0.26
		c0-0.23-0.19-0.42-0.42-0.42c-0.23,0-0.42,0.19-0.42,0.42c0,0.23,0.19,0.42,0.42,0.42c0.04,0,0.07-0.01,0.11-0.01
		c0.1,0.11,0.27,0.21,0.5,0.21c0.12,0,0.21,0.03,0.27,0.1c0.07,0.08,0.09,0.19,0.1,0.27c0,0,0,0,0,0c-0.27,0.74-0.2,1.67-0.2,1.67
		l0.66,0.03c0.01-0.34,0.06-0.92,0.23-1.39C347.46,481.28,347.87,480.71,347.88,480.69z M359.29,478.83c-0.23,0-0.42,0.19-0.42,0.42
		c0,0.04,0.01,0.07,0.02,0.1c-0.12,0.1-0.21,0.27-0.21,0.51c0,0.12-0.03,0.21-0.1,0.27c-0.05,0.05-0.12,0.07-0.18,0.09
		c-0.49-0.69-1.1-1.11-1.1-1.11l-0.47,0.51c0.36,0.33,0.72,0.73,1.08,1.24c0.25,0.35,0.5,0.8,0.71,1.26l0.64-0.3
		c0,0-0.29-0.72-0.7-1.37c0.07-0.02,0.14-0.06,0.21-0.12c0.13-0.11,0.19-0.27,0.18-0.47c0-0.13,0.04-0.22,0.09-0.28
		c0.07,0.05,0.16,0.09,0.26,0.09c0.23,0,0.42-0.19,0.42-0.42C359.7,479.02,359.52,478.83,359.29,478.83z M357.63,484.58
		c-0.88,0.43-2.33,0.99-4.23,1.26c-0.75,0.1-1.47,0.14-2.14,0.14c-0.87,0-1.64-0.06-2.22-0.14c-0.67-0.09-1.2-0.19-1.52-0.26
		c0.08,0.24,0.17,0.49,0.29,0.72c0,0.01,0,0.01,0.01,0.02c0.01,0.03,0.03,0.06,0.04,0.08c0.01,0.03,0.03,0.05,0.04,0.08
		c0,0.01,0.01,0.02,0.01,0.02c0.19,0.36,0.42,0.68,0.67,0.97c0.9,0.98,1.81,1.14,1.82,1.14l0.02,0l0.01,0
		c0.01,0,0.82,0.27,2.05,0.27c1.21,0,2.4-0.25,3.54-0.73c0.84-0.43,1.64-1.08,2.03-1.67c0.3-0.45,0.53-0.93,0.66-1.43
		c0.07-0.27,0.13-0.69,0.09-1.14C358.55,484.08,358.16,484.32,357.63,484.58z M348.17,480.9c-0.03,0.04-0.41,0.58-0.71,1.41
		c-0.22,0.62-0.21,1.53-0.21,1.54l0,0c0,0.21,0.01,0.42,0.04,0.63c0,0,0,0.01,0,0.01c0,0.03,0.01,0.05,0.01,0.08
		c0.02,0.14,0.04,0.29,0.07,0.44c0.44,0.11,3.05,0.72,5.96,0.31c1.83-0.25,3.21-0.79,4.05-1.2c0.7-0.34,1.15-0.65,1.32-0.77
		c-0.17-0.64-0.65-1.65-1.09-2.28c-1.25-1.79-2.6-2.25-3.29-2.36c-0.26-0.04-0.47-0.07-0.78-0.07c-0.28,0-0.63,0.02-1.09,0.07
		c-0.46,0.05-0.98,0.17-1.58,0.37c-0.84,0.28-1.6,0.72-2.2,1.28l-0.02,0.02C348.57,480.45,348.38,480.63,348.17,480.9z
		 M355.82,480.48c0.6,0,1.09,0.49,1.09,1.09c0,0.6-0.49,1.09-1.09,1.09c-0.6,0-1.09-0.49-1.09-1.09
		C354.74,480.97,355.22,480.48,355.82,480.48z M350.68,480.44c0.97,0,1.76,0.79,1.76,1.76c0,0.97-0.79,1.76-1.76,1.76
		c-0.97,0-1.76-0.79-1.76-1.76C348.93,481.22,349.71,480.44,350.68,480.44z"/>
</g>
</svg>
